<?xml version="1.0" encoding="UTF-8"?>
<svg version="1.1" xmlns="http://www.w3.org/2000/svg" width="500" height="500">
<path d="M0 0 C2.32805923 1.15006126 3.55567 2.40126836 5.203125 4.40234375 C5.98429687 5.32853516 5.98429687 5.32853516 6.78125 6.2734375 C7.953125 7.96484375 7.953125 7.96484375 7.953125 9.96484375 C8.613125 9.96484375 9.273125 9.96484375 9.953125 9.96484375 C10.93855005 11.37139062 11.91504944 12.78546796 12.83398438 14.23632812 C15.34488165 18.11441554 18.30544522 21.69914288 21.125 25.35546875 C22.953125 27.96484375 22.953125 27.96484375 22.953125 29.96484375 C23.613125 29.96484375 24.273125 29.96484375 24.953125 29.96484375 C26.58742251 32.05934055 28.09479734 34.14266466 29.578125 36.33984375 C29.99835938 36.943125 30.41859375 37.54640625 30.8515625 38.16796875 C33.953125 42.6994724 33.953125 42.6994724 33.953125 44.96484375 C34.613125 44.96484375 35.273125 44.96484375 35.953125 44.96484375 C37.26245117 46.48681641 37.26245117 46.48681641 38.74609375 48.62890625 C39.29096436 49.41483154 39.83583496 50.20075684 40.3972168 51.01049805 C40.9725415 51.86168213 41.54786621 52.71286621 42.140625 53.58984375 C42.72561768 54.45198486 43.31061035 55.31412598 43.91333008 56.20239258 C52.87654848 69.62544365 58.3169108 81.41717368 58.265625 97.77734375 C58.28979492 99.30198242 58.28979492 99.30198242 58.31445312 100.85742188 C58.32055511 110.43143781 56.39364248 118.87978807 51.953125 127.40234375 C51.458125 128.37042969 50.963125 129.33851563 50.453125 130.3359375 C49.08947536 132.72587555 47.75917396 134.888869 45.953125 136.96484375 C45.293125 136.96484375 44.633125 136.96484375 43.953125 136.96484375 C43.705625 137.58359375 43.458125 138.20234375 43.203125 138.83984375 C41.74683861 141.31553062 40.57499994 141.91609377 37.953125 142.96484375 C37.953125 143.62484375 37.953125 144.28484375 37.953125 144.96484375 C22.61781942 156.71586193 8.0757448 159.53309148 -11.046875 157.96484375 C-21.3727149 156.38189773 -30.63205947 150.99371574 -39.046875 144.96484375 C-39.046875 144.30484375 -39.046875 143.64484375 -39.046875 142.96484375 C-39.706875 142.96484375 -40.366875 142.96484375 -41.046875 142.96484375 C-41.046875 142.30484375 -41.046875 141.64484375 -41.046875 140.96484375 C-41.64628906 140.70832031 -42.24570313 140.45179688 -42.86328125 140.1875 C-46.66061557 138.0612645 -48.66039415 134.51996213 -51.046875 130.96484375 C-51.73523438 129.94003906 -51.73523438 129.94003906 -52.4375 128.89453125 C-57.65493522 120.3769111 -58.90232944 110.72527397 -60.046875 100.96484375 C-59.18932617 100.9712085 -58.33177734 100.97757324 -57.44824219 100.98413086 C-54.25681062 100.99126424 -51.06755316 100.96718673 -47.87646484 100.92211914 C-46.49729527 100.90900424 -45.11794975 100.90822294 -43.73876953 100.92016602 C-35.95731284 101.36616186 -35.95731284 101.36616186 -29.23242188 98.34423828 C-27.93800768 96.23938817 -27.93800768 96.23938817 -27.046875 92.96484375 C-26.056875 92.96484375 -25.066875 92.96484375 -24.046875 92.96484375 C-23.78209351 93.85792236 -23.78209351 93.85792236 -23.51196289 94.76904297 C-22.71301325 97.45988222 -21.91122973 100.14986884 -21.109375 102.83984375 C-20.69268555 104.24556641 -20.69268555 104.24556641 -20.26757812 105.6796875 C-20.00009766 106.57558594 -19.73261719 107.47148437 -19.45703125 108.39453125 C-19.21090088 109.22194824 -18.96477051 110.04936523 -18.71118164 110.90185547 C-18.0941862 112.99650032 -18.0941862 112.99650032 -17.046875 114.96484375 C-16.056875 114.96484375 -15.066875 114.96484375 -14.046875 114.96484375 C-9.67251878 99.72515112 -5.84163247 84.35770913 -2.046875 68.96484375 C-1.386875 68.96484375 -0.726875 68.96484375 -0.046875 68.96484375 C1.33293693 73.92022602 2.70895223 78.87665012 4.08349609 83.83349609 C4.89247767 86.74646569 5.70390563 89.65874602 6.51589966 92.57087708 C7.25092811 95.20920098 7.98369772 97.84814928 8.71606445 100.48721313 C9.08266687 101.80645659 9.4501812 103.12544698 9.81860352 104.44418335 C10.34109049 106.31498873 10.86006939 108.18677278 11.37890625 110.05859375 C11.68223877 111.14849609 11.98557129 112.23839844 12.2980957 113.36132812 C12.953125 115.96484375 12.953125 115.96484375 12.953125 117.96484375 C14.603125 117.96484375 16.253125 117.96484375 17.953125 117.96484375 C18.18 117.01609375 18.406875 116.06734375 18.640625 115.08984375 C19.07229831 113.71300338 19.51063771 112.33824691 19.953125 110.96484375 C20.17871094 110.08828125 20.40429688 109.21171875 20.63671875 108.30859375 C21.72820694 105.15641209 22.54613714 103.30484679 24.953125 100.96484375 C30.34729965 99.77216192 35.45223426 99.74506668 40.953125 99.96484375 C40.953125 98.31484375 40.953125 96.66484375 40.953125 94.96484375 C38.1822267 94.93788366 35.4115905 94.91802423 32.640625 94.90234375 C31.46209961 94.88977539 31.46209961 94.88977539 30.25976562 94.87695312 C29.1237793 94.87211914 29.1237793 94.87211914 27.96484375 94.8671875 C27.26834717 94.86195068 26.57185059 94.85671387 25.85424805 94.85131836 C23.72814532 94.89588384 23.72814532 94.89588384 20.953125 95.96484375 C20.56268294 97.28258571 20.24357414 98.62151647 19.953125 99.96484375 C18.98424919 101.98010544 17.9889929 103.98318341 16.953125 105.96484375 C14.953125 104.96484375 14.953125 104.96484375 14.25463867 103.25683594 C14.04556885 102.51594727 13.83649902 101.77505859 13.62109375 101.01171875 C13.38237549 100.17495605 13.14365723 99.33819336 12.89770508 98.47607422 C12.64786865 97.56486816 12.39803223 96.65366211 12.140625 95.71484375 C11.74750122 94.31129639 11.74750122 94.31129639 11.34643555 92.87939453 C9.03513617 84.51342733 7.01907738 76.08566615 5.0546875 67.6328125 C3.82744454 62.37092884 2.44870785 57.1568265 0.953125 51.96484375 C-1.026875 52.45984375 -1.026875 52.45984375 -3.046875 52.96484375 C-3.20768555 53.60808594 -3.36849609 54.25132812 -3.53417969 54.9140625 C-3.87304199 56.26951172 -3.87304199 56.26951172 -4.21875 57.65234375 C-4.46915039 58.65402588 -4.71955078 59.65570801 -4.97753906 60.68774414 C-5.52621418 62.8822811 -6.07504366 65.07677947 -6.62402344 67.27124023 C-7.84141363 72.13829168 -9.05824853 77.00545357 -10.265625 81.875 C-10.44254883 82.58720703 -10.61947266 83.29941406 -10.80175781 84.03320312 C-11.26449538 85.89693115 -11.72604251 87.76095462 -12.1875 89.625 C-13.0797127 93.09246298 -14.04829181 96.52673934 -15.046875 99.96484375 C-15.706875 99.96484375 -16.366875 99.96484375 -17.046875 99.96484375 C-17.88494116 97.02861911 -18.71749944 94.09102308 -19.546875 91.15234375 C-19.78535156 90.31896484 -20.02382812 89.48558594 -20.26953125 88.62695312 C-20.49511719 87.82451172 -20.72070312 87.02207031 -20.953125 86.1953125 C-21.26733398 85.08772583 -21.26733398 85.08772583 -21.58789062 83.95776367 C-22.046875 81.96484375 -22.046875 81.96484375 -22.046875 78.96484375 C-23.94504448 78.92252017 -23.94504448 78.92252017 -26.046875 79.96484375 C-27.49359061 82.34369116 -28.65181123 84.5154372 -29.796875 87.02734375 C-30.869375 89.31671875 -31.941875 91.60609375 -33.046875 93.96484375 C-41.626875 93.96484375 -50.206875 93.96484375 -59.046875 93.96484375 C-57.71162669 77.94186399 -52.36035293 63.54604424 -42.046875 50.96484375 C-41.386875 50.96484375 -40.726875 50.96484375 -40.046875 50.96484375 C-39.799375 50.24167969 -39.551875 49.51851562 -39.296875 48.7734375 C-37.91561614 45.66992151 -36.26353444 43.5962937 -34.046875 41.02734375 C-30.59699255 36.91275465 -27.37935753 32.73472605 -24.296875 28.33984375 C-20.36489227 22.75423076 -16.31217498 17.27296927 -12.171875 11.83984375 C-11.6243457 11.11716309 -11.07681641 10.39448242 -10.51269531 9.64990234 C-3.08488896 -0.05298473 -3.08488896 -0.05298473 0 0 Z " fill="#CA2B27" transform="translate(110.046875,158.03515625)"/>
<path d="M0 0 C4.26833449 3.76019943 5.74275412 7.81707082 6.625 13.3125 C6.71542657 15.41909782 6.75563506 17.52818215 6.7578125 19.63671875 C6.75910156 20.82974609 6.76039063 22.02277344 6.76171875 23.25195312 C6.75785156 24.48880859 6.75398438 25.72566406 6.75 27 C6.75580078 28.87268555 6.75580078 28.87268555 6.76171875 30.78320312 C6.76042969 31.97236328 6.75914062 33.16152344 6.7578125 34.38671875 C6.75668457 35.47557373 6.75555664 36.56442871 6.75439453 37.6862793 C6.625 40.3125 6.625 40.3125 5.625 42.3125 C1.335 42.3125 -2.955 42.3125 -7.375 42.3125 C-7.42398437 40.33765625 -7.47296875 38.3628125 -7.5234375 36.328125 C-7.59846811 33.73956908 -7.67401581 31.15102811 -7.75 28.5625 C-7.7809375 27.26054687 -7.811875 25.95859375 -7.84375 24.6171875 C-7.88242187 23.36679687 -7.92109375 22.11640625 -7.9609375 20.828125 C-8.00806885 19.09997559 -8.00806885 19.09997559 -8.05615234 17.33691406 C-8.36262859 14.42984842 -8.7097388 12.69587426 -10.375 10.3125 C-13.62424839 9.25296248 -15.43258525 8.83964114 -18.53442383 10.39599609 C-21.18150814 13.15227834 -20.90307205 15.13921167 -20.94921875 18.9140625 C-20.97693359 20.20828125 -21.00464844 21.5025 -21.03320312 22.8359375 C-21.0438484 24.20311843 -21.05360321 25.57030657 -21.0625 26.9375 C-21.10066677 29.61737477 -21.14974306 32.29685234 -21.19921875 34.9765625 C-21.21041748 36.16717285 -21.22161621 37.3577832 -21.2331543 38.58447266 C-21.375 41.3125 -21.375 41.3125 -22.375 42.3125 C-26.665 42.3125 -30.955 42.3125 -35.375 42.3125 C-35.375 27.7925 -35.375 13.2725 -35.375 -1.6875 C-31.415 -1.6875 -27.455 -1.6875 -23.375 -1.6875 C-23.045 -0.6975 -22.715 0.2925 -22.375 1.3125 C-21.83875 0.838125 -21.3025 0.36375 -20.75 -0.125 C-14.56147039 -4.19640106 -6.35715701 -3.17857851 0 0 Z " fill="#812523" transform="translate(411.375,236.6875)"/>
<path d="M0 0 C4.76690759 4.05694263 7.57250856 9.09957341 8.24609375 15.375 C8.24950001 17.77300603 8.16596657 20.11379363 7.9375 22.5 C4.75962459 23.5592918 2.51161057 23.61458939 -0.82421875 23.59765625 C-1.94248047 23.59443359 -3.06074219 23.59121094 -4.21289062 23.58789062 C-5.38013672 23.57951172 -6.54738281 23.57113281 -7.75 23.5625 C-8.92884766 23.55798828 -10.10769531 23.55347656 -11.32226562 23.54882812 C-14.23572789 23.53703273 -17.14908863 23.5205727 -20.0625 23.5 C-20.25832294 27.03061582 -20.25832294 27.03061582 -19.0625 30.25 C-15.89634111 32.22884931 -12.75956448 32.19696193 -9.0625 32.5 C-9.0625 31.84 -9.0625 31.18 -9.0625 30.5 C-8.4025 30.5 -7.7425 30.5 -7.0625 30.5 C-7.0625 29.84 -7.0625 29.18 -7.0625 28.5 C-2.40712607 27.66203269 1.30828475 27.4838308 5.9375 28.5 C5.5191538 33.38070564 3.61619365 35.38110756 -0.0625 38.5 C-5.29384448 42.45019889 -9.43397348 43.16230279 -15.97265625 42.97265625 C-20.89543566 42.21961414 -24.86518816 40.10010468 -29.0625 37.5 C-29.0625 36.84 -29.0625 36.18 -29.0625 35.5 C-29.7225 35.5 -30.3825 35.5 -31.0625 35.5 C-35.5845109 27.68741867 -36.6700248 19.64110597 -34.3671875 10.84375 C-31.77291271 4.30356145 -27.83065753 1.34543835 -22.0625 -2.5 C-13.87444688 -4.36092116 -7.49049476 -3.66881376 0 0 Z M-18.0625 7.5 C-20.38515612 10.08072903 -21.0625 10.95176068 -21.0625 14.5 C-16.1125 14.5 -11.1625 14.5 -6.0625 14.5 C-7.32809682 8.73440243 -7.32809682 8.73440243 -10 7.125 C-13.11867561 6.17994679 -14.976193 6.471231 -18.0625 7.5 Z " fill="#7D1C19" transform="translate(322.0625,237.5)"/>
<path d="M0 0 C4.47172273 3.92639069 7.23364018 7.38086913 8.5625 13.25 C8.5625 16.55 8.5625 19.85 8.5625 23.25 C-1.0075 23.25 -10.5775 23.25 -20.4375 23.25 C-19.7775 25.89 -19.1175 28.53 -18.4375 31.25 C-14.84485548 32.44754817 -12.21032526 32.58094958 -8.4375 32.25 C-7.83292969 31.57839844 -7.22835938 30.90679687 -6.60546875 30.21484375 C-4.4375 28.25 -4.4375 28.25 -1.421875 28.078125 C-0.35453125 28.21734375 0.7128125 28.3565625 1.8125 28.5 C2.89015625 28.62890625 3.9678125 28.7578125 5.078125 28.890625 C5.89796875 29.00921875 6.7178125 29.1278125 7.5625 29.25 C6.6875 34 6.6875 34 5.5625 36.25 C4.9025 36.25 4.2425 36.25 3.5625 36.25 C3.5625 36.91 3.5625 37.57 3.5625 38.25 C-3.5077619 43.36543497 -9.81725949 44.41607552 -18.4375 43.25 C-24.41173099 41.5334874 -27.94558646 38.28246363 -31.4375 33.25 C-34.7096541 26.69421055 -34.44158964 17.988048 -32.9375 10.890625 C-30.66869599 5.06392379 -25.950527 0.93928146 -20.4375 -1.75 C-13.77380746 -3.65391215 -6.15057115 -3.13119986 0 0 Z M-17.125 9.5625 C-19.59439933 12.08891978 -19.59439933 12.08891978 -20.4375 15.25 C-15.1575 15.25 -9.8775 15.25 -4.4375 15.25 C-6.3648342 10.07311531 -6.3648342 10.07311531 -10.4375 7.25 C-14.52307003 6.81517206 -14.52307003 6.81517206 -17.125 9.5625 Z " fill="#7C2220" transform="translate(455.4375,236.75)"/>
<path d="M0 0 C4.29 0 8.58 0 13 0 C13 15.84 13 31.68 13 48 C21.58 48 30.16 48 39 48 C39 51.63 39 55.26 39 59 C38 60 38 60 34.39819336 60.11352539 C32.79540144 60.11336625 31.1926044 60.10767063 29.58984375 60.09765625 C28.74780899 60.0962413 27.90577423 60.09482635 27.03822327 60.09336853 C24.33794665 60.08775263 21.63775172 60.07519748 18.9375 60.0625 C17.11132932 60.05748705 15.28515734 60.05292379 13.45898438 60.04882812 C8.97262458 60.03777804 4.48632616 60.02050279 0 60 C-1.29146455 57.41707089 -1.12705706 55.55613757 -1.12939453 52.6640625 C-1.13254669 51.54950684 -1.13569885 50.43495117 -1.13894653 49.28662109 C-1.1369223 48.07828613 -1.13489807 46.86995117 -1.1328125 45.625 C-1.13376923 44.38959473 -1.13472595 43.15418945 -1.13571167 41.88134766 C-1.13656804 38.59413916 -1.13253344 35.30697764 -1.12695312 32.01977539 C-1.12500203 30.00210059 -1.12694592 27.98446928 -1.13037109 25.96679688 C-1.13652992 22.10284387 -1.13580484 18.23895565 -1.1328125 14.375 C-1.13483673 13.16666504 -1.13686096 11.95833008 -1.13894653 10.71337891 C-1.13579437 9.59882324 -1.13264221 8.48426758 -1.12939453 7.3359375 C-1.12859894 6.35157715 -1.12780334 5.3672168 -1.12698364 4.35302734 C-1 2 -1 2 0 0 Z " fill="#7F1613" transform="translate(196,219)"/>
<path d="M0 0 C1.26328125 0.01804688 2.5265625 0.03609375 3.828125 0.0546875 C4.79234375 0.07789063 5.7565625 0.10109375 6.75 0.125 C7.59676067 3.85701925 7.70929637 6.39440301 6.75 10.125 C4.44 10.455 2.13 10.785 -0.25 11.125 C-0.91 13.105 -1.57 15.085 -2.25 17.125 C0.72 17.125 3.69 17.125 6.75 17.125 C6.75 20.755 6.75 24.385 6.75 28.125 C3.78 28.125 0.81 28.125 -2.25 28.125 C-2.25 39.015 -2.25 49.905 -2.25 61.125 C-6.54 61.125 -10.83 61.125 -15.25 61.125 C-16.29424563 49.89935945 -16.44370447 39.33729559 -15.25 28.125 C-17.56 28.125 -19.87 28.125 -22.25 28.125 C-22.25 24.495 -22.25 20.865 -22.25 17.125 C-19.94 17.125 -17.63 17.125 -15.25 17.125 C-15.29640625 16.46113281 -15.3428125 15.79726562 -15.390625 15.11328125 C-15.68656207 7.87339213 -15.68656207 7.87339213 -13.5 4.125 C-9.06432425 0.18217711 -5.93442428 -0.10989675 0 0 Z " fill="#7C1814" transform="translate(279.25,217.875)"/>
<path d="M0 0 C1.97909398 -0.02686553 3.95828971 -0.04633375 5.9375 -0.0625 C7.03964844 -0.07410156 8.14179688 -0.08570313 9.27734375 -0.09765625 C12 0 12 0 13 1 C13.09899561 2.80509373 13.12799151 4.61406928 13.12939453 6.421875 C13.13254669 7.57977539 13.13569885 8.73767578 13.13894653 9.93066406 C13.1369223 11.19104492 13.13489807 12.45142578 13.1328125 13.75 C13.13376923 15.03358398 13.13472595 16.31716797 13.13571167 17.63964844 C13.13718831 20.36003824 13.13503519 23.08039525 13.13037109 25.80078125 C13.12467381 29.29484669 13.12795299 32.78883533 13.13394356 36.28289795 C13.13841754 39.60527153 13.13528885 42.92762423 13.1328125 46.25 C13.13483673 47.51038086 13.13686096 48.77076172 13.13894653 50.06933594 C13.13579437 51.22723633 13.13264221 52.38513672 13.12939453 53.578125 C13.12859894 54.60325195 13.12780334 55.62837891 13.12698364 56.68457031 C13 59 13 59 12 60 C9.98035801 60.07244053 7.95832876 60.08377188 5.9375 60.0625 C4.28041016 60.04896484 4.28041016 60.04896484 2.58984375 60.03515625 C1.73519531 60.02355469 0.88054687 60.01195312 0 60 C-1.07408734 53.89199487 -1.14506379 47.93063538 -1.1328125 41.73828125 C-1.13376923 40.67006638 -1.13472595 39.6018515 -1.13571167 38.50126648 C-1.13638973 36.25304098 -1.13456163 34.00481349 -1.13037109 31.7565918 C-1.12500171 28.31359484 -1.13033693 24.87072739 -1.13671875 21.42773438 C-1.13605821 19.23958305 -1.13477755 17.0514318 -1.1328125 14.86328125 C-1.13483673 13.83407059 -1.13686096 12.80485992 -1.13894653 11.74446106 C-1.13579437 10.78634018 -1.13264221 9.8282193 -1.12939453 8.84106445 C-1.12859894 8.0005806 -1.12780334 7.16009674 -1.12698364 6.29414368 C-1.00378445 4.06837164 -0.61903316 2.13608491 0 0 Z " fill="#7E1613" transform="translate(335,219)"/>
<path d="M0 0 C4.29 0 8.58 0 13 0 C13.16738578 5.94466225 13.32796884 11.88945397 13.48217773 17.83447266 C13.53563266 19.85796079 13.59096466 21.88140023 13.64819336 23.90478516 C13.73000696 26.80881243 13.80512562 29.71294644 13.87890625 32.6171875 C13.90594131 33.52556366 13.93297638 34.43393982 13.96083069 35.36984253 C13.98092697 36.21056305 14.00102325 37.05128357 14.02172852 37.91748047 C14.04171402 38.65916473 14.06169952 39.400849 14.08229065 40.16500854 C14 42 14 42 13 44 C11.02090602 44.02686553 9.04171029 44.04633375 7.0625 44.0625 C5.96035156 44.07410156 4.85820312 44.08570313 3.72265625 44.09765625 C1 44 1 44 0 43 C-0.09268999 41.64905018 -0.11747326 40.29332909 -0.11352539 38.93920898 C-0.11344986 38.07839218 -0.11337433 37.21757538 -0.11329651 36.33067322 C-0.10813522 35.39526199 -0.10297394 34.45985077 -0.09765625 33.49609375 C-0.0962413 32.54307877 -0.09482635 31.59006378 -0.09336853 30.60816956 C-0.08775152 27.55124835 -0.07519616 24.49439923 -0.0625 21.4375 C-0.05748719 19.37044376 -0.05292391 17.30338638 -0.04882812 15.23632812 C-0.03777656 10.15752412 -0.02050055 5.0787743 0 0 Z " fill="#7E1614" transform="translate(240,235)"/>
<path d="M0 0 C3.96 0 7.92 0 12 0 C13.94863925 1.94863925 13.1291874 4.8980872 13.13894653 7.49121094 C13.1369223 8.40161133 13.13489807 9.31201172 13.1328125 10.25 C13.13376923 11.17844727 13.13472595 12.10689453 13.13571167 13.06347656 C13.13639355 15.03059965 13.13453872 16.99772496 13.13037109 18.96484375 C13.12502295 21.98703026 13.13031582 25.00906815 13.13671875 28.03125 C13.13605797 29.93750033 13.13477681 31.84375057 13.1328125 33.75 C13.13483673 34.66040039 13.13686096 35.57080078 13.13894653 36.50878906 C13.11494969 42.88505031 13.11494969 42.88505031 12 44 C8.04 44 4.08 44 0 44 C0 29.48 0 14.96 0 0 Z " fill="#7F1611" transform="translate(356,235)"/>
<path d="M0 0 C4.92653194 7.0600694 5 10.84786599 5 20 C-5.23 19.67 -15.46 19.34 -26 19 C-26 18.34 -26 17.68 -26 17 C-26.66 17 -27.32 17 -28 17 C-28 15.68 -28 14.36 -28 13 C-27.34 13 -26.68 13 -26 13 C-26 13.66 -26 14.32 -26 15 C-25.34 14.67 -24.68 14.34 -24 14 C-22.23132545 13.90316436 -20.45881697 13.87020618 -18.6875 13.875 C-17.74261719 13.87242187 -16.79773438 13.86984375 -15.82421875 13.8671875 C-13.11404264 13.994637 -10.64026415 14.39403774 -8 15 C-8 13.35 -8 11.7 -8 10 C-8.66 10 -9.32 10 -10 10 C-10.185625 9.38125 -10.37125 8.7625 -10.5625 8.125 C-12.71437233 4.94397134 -15.37533763 4.80548053 -19 4 C-19 3.34 -19 2.68 -19 2 C-20.65 2 -22.3 2 -24 2 C-24 1.34 -24 0.68 -24 0 C-24.99 -0.33 -25.98 -0.66 -27 -1 C-26.375 -2.9375 -26.375 -2.9375 -25 -5 C-15.95353044 -7.52459616 -7.17924357 -6.10999453 0 0 Z " fill="#802523" transform="translate(325,240)"/>
<path d="M0 0 C4.29 0 8.58 0 13 0 C13 15.84 13 31.68 13 48 C21.58 48 30.16 48 39 48 C39 51.63 39 55.26 39 59 C38 60 38 60 34.39819336 60.11352539 C32.79540144 60.11336625 31.1926044 60.10767063 29.58984375 60.09765625 C28.74780899 60.0962413 27.90577423 60.09482635 27.03822327 60.09336853 C24.33794665 60.08775263 21.63775172 60.07519748 18.9375 60.0625 C17.11132932 60.05748705 15.28515734 60.05292379 13.45898438 60.04882812 C8.97262458 60.03777804 4.48632616 60.02050279 0 60 C-1.29146455 57.41707089 -1.12705706 55.55613757 -1.12939453 52.6640625 C-1.13254669 51.54950684 -1.13569885 50.43495117 -1.13894653 49.28662109 C-1.1369223 48.07828613 -1.13489807 46.86995117 -1.1328125 45.625 C-1.13376923 44.38959473 -1.13472595 43.15418945 -1.13571167 41.88134766 C-1.13656804 38.59413916 -1.13253344 35.30697764 -1.12695312 32.01977539 C-1.12500203 30.00210059 -1.12694592 27.98446928 -1.13037109 25.96679688 C-1.13652992 22.10284387 -1.13580484 18.23895565 -1.1328125 14.375 C-1.13483673 13.16666504 -1.13686096 11.95833008 -1.13894653 10.71337891 C-1.13579437 9.59882324 -1.13264221 8.48426758 -1.12939453 7.3359375 C-1.12859894 6.35157715 -1.12780334 5.3672168 -1.12698364 4.35302734 C-1 2 -1 2 0 0 Z M3 3 C1.16464509 4.83535491 1.76035487 7.77742237 1.68359375 10.24609375 C1.64153809 11.5508667 1.59948242 12.85563965 1.55615234 14.19995117 C1.51619226 15.61245593 1.47664896 17.02497253 1.4375 18.4375 C1.39537186 19.8597827 1.35321689 21.2820646 1.31103516 22.7043457 C1.09104976 30.36415162 0.90223019 38.02426541 0.875 45.6875 C0.87040771 46.39124756 0.86581543 47.09499512 0.86108398 47.82006836 C0.86074349 52.50246024 0.86074349 52.50246024 2 57 C4.95810476 58.47905238 7.9547155 58.12190903 11.1953125 58.09765625 C11.90275604 58.0962413 12.61019958 58.09482635 13.33908081 58.09336853 C15.60109669 58.087766 17.86301398 58.07521318 20.125 58.0625 C21.65755065 58.05748532 23.19010286 58.05292236 24.72265625 58.04882812 C28.48180888 58.03779577 32.24088772 58.02052952 36 58 C36 55.69 36 53.38 36 51 C28.81978026 47.40989013 20.01944944 49.36452043 12 49 C11.67 33.82 11.34 18.64 11 3 C8.36 3 5.72 3 3 3 Z " fill="#702A2B" transform="translate(196,219)"/>
<path d="M0 0 C3.3 0 6.6 0 10 0 C10 2.66666667 10 5.33333333 10 8 C10.66 8.33 11.32 8.66 12 9 C11.67 19.23 11.34 29.46 11 40 C10.34 39.67 9.68 39.34 9 39 C7.62657169 38.9310528 6.24997898 38.91532292 4.875 38.9375 C2.956875 38.9684375 2.956875 38.9684375 1 39 C-0.61301773 35.77396455 -0.12053599 32.25289962 -0.09765625 28.7109375 C-0.0962413 27.89251373 -0.09482635 27.07408997 -0.09336853 26.23086548 C-0.0877629 23.61220675 -0.07520948 20.99363296 -0.0625 18.375 C-0.05748572 16.60156373 -0.05292269 14.82812613 -0.04882812 13.0546875 C-0.03779164 8.70309218 -0.02052325 4.3515605 0 0 Z " fill="#7A1613" transform="translate(378,237)"/>
<path d="M0 0 C2.22189824 2.22189824 2.92598892 4.08482708 4 7 C2.35 7.66 0.7 8.32 -1 9 C-1 9.66 -1 10.32 -1 11 C-0.67 11 -0.34 11 0 11 C0 12.65 0 14.3 0 16 C2.97 16 5.94 16 9 16 C9.87890625 22.15234375 9.87890625 22.15234375 10 24 C9 25 9 25 5.4375 25.0625 C4.303125 25.041875 3.16875 25.02125 2 25 C2 24.67 2 24.34 2 24 C3.98 24 5.96 24 8 24 C7.278125 23.855625 6.55625 23.71125 5.8125 23.5625 C3.20833333 23.04166667 0.60416667 22.52083333 -2 22 C-2.04125 22.763125 -2.0825 23.52625 -2.125 24.3125 C-3 27 -3 27 -6.0625 28.8125 C-7.031875 29.204375 -8.00125 29.59625 -9 30 C-9.33 28.35 -9.66 26.7 -10 25 C-12.64 25 -15.28 25 -18 25 C-18 22.03 -18 19.06 -18 16 C-15.36 16 -12.72 16 -10 16 C-10.04640625 15.40832031 -10.0928125 14.81664062 -10.140625 14.20703125 C-10.32530303 10.16390159 -10.36932973 7.66763451 -8.375 4.0625 C-5.68312406 1.72481826 -3.4367294 0.85918235 0 0 Z " fill="#7A1512" transform="translate(276,220)"/>
<path d="M0 0 C1.97909398 -0.02686553 3.95828971 -0.04633375 5.9375 -0.0625 C7.03964844 -0.07410156 8.14179688 -0.08570313 9.27734375 -0.09765625 C12 0 12 0 13 1 C13.09899561 2.80509373 13.12799151 4.61406928 13.12939453 6.421875 C13.13254669 7.57977539 13.13569885 8.73767578 13.13894653 9.93066406 C13.1369223 11.19104492 13.13489807 12.45142578 13.1328125 13.75 C13.13376923 15.03358398 13.13472595 16.31716797 13.13571167 17.63964844 C13.13718831 20.36003824 13.13503519 23.08039525 13.13037109 25.80078125 C13.12467381 29.29484669 13.12795299 32.78883533 13.13394356 36.28289795 C13.13841754 39.60527153 13.13528885 42.92762423 13.1328125 46.25 C13.13483673 47.51038086 13.13686096 48.77076172 13.13894653 50.06933594 C13.13579437 51.22723633 13.13264221 52.38513672 13.12939453 53.578125 C13.12859894 54.60325195 13.12780334 55.62837891 13.12698364 56.68457031 C13 59 13 59 12 60 C9.98035801 60.07244053 7.95832876 60.08377188 5.9375 60.0625 C4.28041016 60.04896484 4.28041016 60.04896484 2.58984375 60.03515625 C1.73519531 60.02355469 0.88054687 60.01195312 0 60 C-1.07408734 53.89199487 -1.14506379 47.93063538 -1.1328125 41.73828125 C-1.13376923 40.67006638 -1.13472595 39.6018515 -1.13571167 38.50126648 C-1.13638973 36.25304098 -1.13456163 34.00481349 -1.13037109 31.7565918 C-1.12500171 28.31359484 -1.13033693 24.87072739 -1.13671875 21.42773438 C-1.13605821 19.23958305 -1.13477755 17.0514318 -1.1328125 14.86328125 C-1.13483673 13.83407059 -1.13686096 12.80485992 -1.13894653 11.74446106 C-1.13579437 10.78634018 -1.13264221 9.8282193 -1.12939453 8.84106445 C-1.12859894 8.0005806 -1.12780334 7.16009674 -1.12698364 6.29414368 C-1.00378445 4.06837164 -0.61903316 2.13608491 0 0 Z M2 2 C2 20.48 2 38.96 2 58 C4.97 58 7.94 58 11 58 C11 39.52 11 21.04 11 2 C8.03 2 5.06 2 2 2 Z " fill="#834847" transform="translate(335,219)"/>
<path d="M0 0 C0 0.66 0 1.32 0 2 C-1.41702513 1.85769192 -2.8336096 1.71099254 -4.25 1.5625 C-5.43335938 1.44068359 -5.43335938 1.44068359 -6.640625 1.31640625 C-8.82364639 1.02365007 -10.8773182 0.57935581 -13 0 C-13 -0.66 -13 -1.32 -13 -2 C-16.37400578 -2.41725678 -16.37400578 -2.41725678 -20 -2 C-22.11734188 0.24952182 -22.11734188 0.24952182 -23 3 C-22.04134491 5.33075929 -22.04134491 5.33075929 -19 7 C-20.65 7.99 -22.3 8.98 -24 10 C-26.2477975 7.94766315 -27.0022242 6.99332739 -28 4 C-27.0625 0.8125 -27.0625 0.8125 -26 -2 C-29.3 -2 -32.6 -2 -36 -2 C-35.67 10.87 -35.34 23.74 -35 37 C-32.36 37 -29.72 37 -27 37 C-27.01571045 36.31897217 -27.0314209 35.63794434 -27.04760742 34.9362793 C-27.10993222 31.85343719 -27.14898258 28.77072756 -27.1875 25.6875 C-27.22520508 24.0797168 -27.22520508 24.0797168 -27.26367188 22.43945312 C-27.27817383 20.89741211 -27.27817383 20.89741211 -27.29296875 19.32421875 C-27.3086792 18.37635498 -27.32438965 17.42849121 -27.34057617 16.4519043 C-26.94475643 13.60228592 -26.22175281 12.75023895 -24 11 C-23.97534119 14.96930989 -23.95715977 18.93859034 -23.94506836 22.90795898 C-23.94002943 24.25920386 -23.93319823 25.61044326 -23.92456055 26.96166992 C-23.91247581 28.90020434 -23.90730172 30.838778 -23.90234375 32.77734375 C-23.89710693 33.94515381 -23.89187012 35.11296387 -23.88647461 36.31616211 C-24 39 -24 39 -25 40 C-29.29 40 -33.58 40 -38 40 C-38 25.48 -38 10.96 -38 -4 C-34.04 -4 -30.08 -4 -26 -4 C-25.67 -3.01 -25.34 -2.02 -25 -1 C-24.46375 -1.474375 -23.9275 -1.94875 -23.375 -2.4375 C-16.09007482 -7.23021394 -6.3449984 -5.3688448 0 0 Z " fill="#843836" transform="translate(414,239)"/>
<path d="M0 0 C1.875 0.125 1.875 0.125 4 1 C5.25 4.0625 5.25 4.0625 6 7 C9.63 7.33 13.26 7.66 17 8 C17 7.01 17 6.02 17 5 C17.66 5 18.32 5 19 5 C19 4.34 19 3.68 19 3 C23.65537393 2.16203269 27.37078475 1.9838308 32 3 C31.58424938 7.85042388 29.58340022 9.84319505 26 13 C21.51597428 15.98935048 17.25887764 15.47351422 12 15 C7.59354881 13.95050265 4.02636901 12.45488143 1 9 C-0.10208462 5.99431469 -0.0883153 3.17935075 0 0 Z " fill="#7D1512" transform="translate(296,263)"/>
<path d="M0 0 C0.33 0 0.66 0 1 0 C1.28593182 7.18989804 1.57063906 14.37984382 1.85449219 21.56982422 C1.95121469 24.01612448 2.04821824 26.46241364 2.14550781 28.90869141 C2.28524358 32.42347383 2.4239709 35.93829483 2.5625 39.453125 C2.60624756 40.5480426 2.64999512 41.64296021 2.69506836 42.77105713 C2.73510986 43.79181335 2.77515137 44.81256958 2.81640625 45.86425781 C2.85193604 46.76138489 2.88746582 47.65851196 2.92407227 48.58282471 C2.99123544 50.72097827 3 52.86079185 3 55 C14.88 55.33 26.76 55.66 39 56 C39 53.03 39 50.06 39 47 C31.08 47 23.16 47 15 47 C15 46.67 15 46.34 15 46 C23.25 46 31.5 46 40 46 C40 49.63 40 53.26 40 57 C39 58 39 58 35.39819336 58.11352539 C33.79540144 58.11336625 32.1926044 58.10767063 30.58984375 58.09765625 C29.74780899 58.0962413 28.90577423 58.09482635 28.03822327 58.09336853 C25.33794665 58.08775263 22.63775172 58.07519748 19.9375 58.0625 C18.11132932 58.05748705 16.28515734 58.05292379 14.45898438 58.04882812 C9.97262458 58.03777804 5.48632616 58.02050279 1 58 C-0.29663922 55.40672157 -0.12003569 53.53591932 -0.11352539 50.63232422 C-0.11344986 49.51131317 -0.11337433 48.39030212 -0.11329651 47.23532104 C-0.10813522 46.02071198 -0.10297394 44.80610291 -0.09765625 43.5546875 C-0.0962413 42.31453888 -0.09482635 41.07439026 -0.09336853 39.79666138 C-0.08871096 36.49881867 -0.07972439 33.20102454 -0.06866455 29.90319824 C-0.05843731 26.53833613 -0.05386809 23.17346692 -0.04882812 19.80859375 C-0.03778269 13.20571007 -0.02103247 6.60285901 0 0 Z " fill="#A67977" transform="translate(195,221)"/>
<path d="M0 0 C5.65603901 4.96627815 7.35677881 8.96807858 8.5625 16.25 C6.5625 14.875 6.5625 14.875 4.5625 13.25 C4.5625 12.59 4.5625 11.93 4.5625 11.25 C3.5725 10.92 2.5825 10.59 1.5625 10.25 C-0.96338702 12.61292656 -2.32570837 13.91462511 -3.4375 17.25 C-9.0475 16.92 -14.6575 16.59 -20.4375 16.25 C-20.4375 15.92 -20.4375 15.59 -20.4375 15.25 C-15.1575 15.25 -9.8775 15.25 -4.4375 15.25 C-8.33457779 9.05420613 -8.33457779 9.05420613 -14.4375 7.25 C-14.4375 6.59 -14.4375 5.93 -14.4375 5.25 C-12.10416667 5.25 -9.77083333 5.25 -7.4375 5.25 C-6.7775 4.92 -6.1175 4.59 -5.4375 4.25 C-4.4475 4.25 -3.4575 4.25 -2.4375 4.25 C-4.31982786 1.90618869 -4.31982786 1.90618869 -7.4375 2.1875 C-8.4275 2.208125 -9.4175 2.22875 -10.4375 2.25 C-11.0975 1.92 -11.7575 1.59 -12.4375 1.25 C-13.80652074 0.87338184 -15.18243524 0.52138664 -16.5625 0.1875 C-17.84125 -0.121875 -19.12 -0.43125 -20.4375 -0.75 C-20.4375 -1.08 -20.4375 -1.41 -20.4375 -1.75 C-13.56960984 -3.42056788 -6.3229699 -3.2189665 0 0 Z " fill="#802A27" transform="translate(455.4375,236.75)"/>
<path d="M0 0 C1.26328125 0.01804688 2.5265625 0.03609375 3.828125 0.0546875 C4.79234375 0.07789063 5.7565625 0.10109375 6.75 0.125 C7.59676067 3.85701925 7.70929637 6.39440301 6.75 10.125 C4.44 10.455 2.13 10.785 -0.25 11.125 C-0.91 13.105 -1.57 15.085 -2.25 17.125 C0.72 17.125 3.69 17.125 6.75 17.125 C6.75 19.435 6.75 21.745 6.75 24.125 C6.42 24.125 6.09 24.125 5.75 24.125 C5.75 22.145 5.75 20.165 5.75 18.125 C4.29176788 18.0979957 2.83339325 18.07860213 1.375 18.0625 C0.15683594 18.04509766 0.15683594 18.04509766 -1.0859375 18.02734375 C-3.29937142 17.98033666 -3.29937142 17.98033666 -5.25 19.125 C-6.58333333 13.79166667 -6.58333333 13.79166667 -5.0625 10.75 C-3.25 9.125 -3.25 9.125 0.75 9.125 C-0.53288757 6.56996043 -0.53288757 6.56996043 -2.25 4.125 C-5.89461999 4.125 -8.15227453 4.14924403 -10.9375 6.625 C-12.869207 10.3044419 -12.9957321 14.02164218 -13.25 18.125 C-15.89 18.125 -18.53 18.125 -21.25 18.125 C-21.25 21.095 -21.25 24.065 -21.25 27.125 C-19.27 27.125 -17.29 27.125 -15.25 27.125 C-15.25 27.455 -15.25 27.785 -15.25 28.125 C-17.56 28.125 -19.87 28.125 -22.25 28.125 C-22.25 24.495 -22.25 20.865 -22.25 17.125 C-19.94 17.125 -17.63 17.125 -15.25 17.125 C-15.29640625 16.46113281 -15.3428125 15.79726562 -15.390625 15.11328125 C-15.68656207 7.87339213 -15.68656207 7.87339213 -13.5 4.125 C-9.06432425 0.18217711 -5.93442428 -0.10989675 0 0 Z " fill="#6D1714" transform="translate(279.25,217.875)"/>
<path d="M0 0 C4.29 0 8.58 0 13 0 C13 13.53 13 27.06 13 41 C12.34 41 11.68 41 11 41 C11 28.13 11 15.26 11 2 C8.03 2 5.06 2 2 2 C2 15.53 2 29.06 2 43 C1.34 43 0.68 43 0 43 C0 28.81 0 14.62 0 0 Z " fill="#763532" transform="translate(240,235)"/>
<path d="M0 0 C2.875 1.625 2.875 1.625 5 4 C5.58763244 8.1134271 5.33043558 9.50434664 3 13 C-0.66329128 14.83164564 -2.33543786 15.18808362 -6.3125 14.0625 C-9 12 -9 12 -9.9375 8.5 C-10 5 -10 5 -9 2 C-5.48746854 -0.34168764 -4.13530644 -0.49623677 0 0 Z " fill="#791515" transform="translate(249,217)"/>
<path d="M0 0 C2.49732489 3.74598733 2.62175294 5.57001031 2 10 C-0.625 12.5625 -0.625 12.5625 -4 14 C-7.25 13.4375 -7.25 13.4375 -10 12 C-12 9 -12 9 -11.875 5.5 C-11 2 -11 2 -9.375 0 C-5.92336696 -1.45331917 -3.57190516 -0.92604949 0 0 Z " fill="#7F312D" transform="translate(367,218)"/>
<path d="M0 0 C0.33 0.66 0.66 1.32 1 2 C1.66 2 2.32 2 3 2 C5.1875 4.125 5.1875 4.125 7 7 C6.61328125 10.1796875 6.61328125 10.1796875 6 13 C2.20744328 12.91941151 -1.58347092 12.80654683 -5.375 12.6875 C-6.45523437 12.66494141 -7.53546875 12.64238281 -8.6484375 12.61914062 C-9.6796875 12.58369141 -10.7109375 12.54824219 -11.7734375 12.51171875 C-13.20308838 12.47244263 -13.20308838 12.47244263 -14.66162109 12.43237305 C-15.43328613 12.28968994 -16.20495117 12.14700684 -17 12 C-17.66 11.01 -18.32 10.02 -19 9 C-16.23547967 7.61773984 -13.9538637 7.90474613 -10.875 7.9375 C-9.77929688 7.94652344 -8.68359375 7.95554688 -7.5546875 7.96484375 C-6.71164062 7.97644531 -5.86859375 7.98804688 -5 8 C-4.87753906 7.21238281 -4.75507813 6.42476562 -4.62890625 5.61328125 C-3.85651507 2.40378 -2.75143666 1.6863644 0 0 Z " fill="#7D1512" transform="translate(457,246)"/>
<path d="M0 0 C1.0725 0.309375 2.145 0.61875 3.25 0.9375 C3.58 1.5975 3.91 2.2575 4.25 2.9375 C5.24 2.9375 6.23 2.9375 7.25 2.9375 C8.81858296 3.24092192 10.38113523 3.57660382 11.9375 3.9375 C13.14986328 4.2159375 13.14986328 4.2159375 14.38671875 4.5 C15.30904297 4.7165625 15.30904297 4.7165625 16.25 4.9375 C16.58 6.2575 16.91 7.5775 17.25 8.9375 C15.93 8.6075 14.61 8.2775 13.25 7.9375 C13.25 8.5975 13.25 9.2575 13.25 9.9375 C11.97125 9.7725 10.6925 9.6075 9.375 9.4375 C4.3215842 8.86708264 -0.67062649 8.84206292 -5.75 8.9375 C-6.08 7.9475 -6.41 6.9575 -6.75 5.9375 C-7.41 5.6075 -8.07 5.2775 -8.75 4.9375 C-4.71269555 -0.07854493 -4.71269555 -0.07854493 0 0 Z " fill="#80140E" transform="translate(397.75,236.0625)"/>
<path d="M0 0 C0.33 0 0.66 0 1 0 C1.02464574 5.96313166 1.042834 11.92623395 1.05493164 17.8894043 C1.05997278 19.91968298 1.06680557 21.94995802 1.07543945 23.98022461 C1.08751467 26.89177347 1.09323034 29.8032745 1.09765625 32.71484375 C1.10281754 33.6283812 1.10797882 34.54191864 1.11329651 35.48313904 C1.11349168 37.65575427 1.06211805 39.82827296 1 42 C0 43 0 43 -2.72265625 43.09765625 C-3.82480469 43.08605469 -4.92695313 43.07445312 -6.0625 43.0625 C-7.16722656 43.05347656 -8.27195312 43.04445313 -9.41015625 43.03515625 C-10.69212891 43.01775391 -10.69212891 43.01775391 -12 43 C-12.02495303 38.74992247 -12.0429783 34.49988519 -12.05493164 30.24975586 C-12.05992148 28.807691 -12.06671573 27.36563109 -12.07543945 25.92358398 C-12.1208459 18.21784327 -12.08531842 10.64850379 -11 3 C-10.67 3 -10.34 3 -10 3 C-10 14.88 -10 26.76 -10 39 C-6.7 39.66 -3.4 40.32 0 41 C0 27.47 0 13.94 0 0 Z " fill="#8C4B4B" transform="translate(368,236)"/>
<path d="M0 0 C0.33 0.66 0.66 1.32 1 2 C-1.97 2 -4.94 2 -8 2 C-8 12.89 -8 23.78 -8 35 C-12.29 35 -16.58 35 -21 35 C-22.58415842 17.97029703 -22.58415842 17.97029703 -22 13 C-21.34 12.34 -20.68 11.68 -20 11 C-19.67 18.26 -19.34 25.52 -19 33 C-16.36 33 -13.72 33 -11 33 C-11 22.77 -11 12.54 -11 2 C-8.70370006 0.85185003 -6.92301914 0.69230191 -4.375 0.4375 C-3.55773437 0.35371094 -2.74046875 0.26992187 -1.8984375 0.18359375 C-0.95871094 0.09271484 -0.95871094 0.09271484 0 0 Z " fill="#915352" transform="translate(285,244)"/>
<path d="M0 0 C3.96 0 7.92 0 12 0 C12 13.86 12 27.72 12 42 C11.01 41.67 10.02 41.34 9 41 C9.33 28.46 9.66 15.92 10 3 C7.36 3.33 4.72 3.66 2 4 C1.67 6.97 1.34 9.94 1 13 C0.67 13 0.34 13 0 13 C0 8.71 0 4.42 0 0 Z " fill="#742726" transform="translate(356,235)"/>
<path d="M0 0 C2 3 2 3 2 12 C-12.85 11.505 -12.85 11.505 -28 11 C-28 10.34 -28 9.68 -28 9 C-28.66 9 -29.32 9 -30 9 C-30 7.68 -30 6.36 -30 5 C-29.34 5 -28.68 5 -28 5 C-28 5.66 -28 6.32 -28 7 C-27.34 6.67 -26.68 6.34 -26 6 C-20.27818607 5.68212145 -14.61590124 5.78575108 -9 7 C-9 7.66 -9 8.32 -9 9 C-5.7 9 -2.4 9 1 9 C0.34 8.01 -0.32 7.02 -1 6 C-1.1875 3.375 -1.1875 3.375 -1 1 C-0.67 0.67 -0.34 0.34 0 0 Z " fill="#751816" transform="translate(327,248)"/>
<path d="M0 0 C0.99 0.99 1.98 1.98 3 3 C2.67 3.66 2.34 4.32 2 5 C2.66 5 3.32 5 4 5 C4 5.99 4 6.98 4 8 C5.32 8.33 6.64 8.66 8 9 C8 7.02 8 5.04 8 3 C8.66 2.67 9.32 2.34 10 2 C10.13466603 6.98905575 9.70301802 11.49009795 8.6875 16.375 C8.44386719 17.59960938 8.20023438 18.82421875 7.94921875 20.0859375 C7.63597656 21.04757813 7.32273437 22.00921875 7 23 C6.01 23.33 5.02 23.66 4 24 C3.13024657 21.12891082 2.27899167 18.25437467 1.4375 15.375 C1.19064453 14.56675781 0.94378906 13.75851563 0.68945312 12.92578125 C-0.66194585 8.24346932 -1.30834073 4.84164413 0 0 Z " fill="#C83737" transform="translate(89,234)"/>
<path d="M0 0 C3.96 0.33 7.92 0.66 12 1 C11 6 11 6 10 8 C9.34 8 8.68 8 8 8 C8 8.66 8 9.32 8 10 C0.98719811 15.07386183 -5.42946521 16.12770195 -14 15 C-14.99 14.34 -15.98 13.68 -17 13 C-13.04 13 -9.08 13 -5 13 C-4.67 12.34 -4.34 11.68 -4 11 C-1.4375 10.375 -1.4375 10.375 1 10 C1.144375 9.38125 1.28875 8.7625 1.4375 8.125 C2 6 2 6 3 4 C2.505 3.525625 2.01 3.05125 1.5 2.5625 C0 1 0 1 0 0 Z " fill="#863C3B" transform="translate(451,265)"/>
<path d="M0 0 C1.81293089 0.14037521 3.6253443 0.28744889 5.4375 0.4375 C6.95150391 0.55931641 6.95150391 0.55931641 8.49609375 0.68359375 C11 1 11 1 12 2 C12.804375 2.12375 13.60875 2.2475 14.4375 2.375 C17 3 17 3 19 6 C17 7 17 7 14 7 C13.01 7.33 12.02 7.66 11 8 C11 7.34 11 6.68 11 6 C9.35 6 7.7 6 6 6 C6 6.66 6 7.32 6 8 C3.36 8 0.72 8 -2 8 C-2 7.34 -2 6.68 -2 6 C-2.99 5.67 -3.98 5.34 -5 5 C-4.360625 4.731875 -3.72125 4.46375 -3.0625 4.1875 C-0.66868314 3.11332248 -0.66868314 3.11332248 0 0 Z " fill="#7C1611" transform="translate(435,236)"/>
<path d="M0 0 C0.33 0 0.66 0 1 0 C1.02465881 3.96930989 1.04284023 7.93859034 1.05493164 11.90795898 C1.05997057 13.25920386 1.06680177 14.61044326 1.07543945 15.96166992 C1.08752419 17.90020434 1.09269828 19.838778 1.09765625 21.77734375 C1.10289307 22.94515381 1.10812988 24.11296387 1.11352539 25.31616211 C1 28 1 28 0 29 C-4.33530918 29.14393457 -8.66157731 29.04212061 -13 29 C-13 23.39 -13 17.78 -13 12 C-12.67 12 -12.34 12 -12 12 C-11.93941406 12.84304688 -11.87882812 13.68609375 -11.81640625 14.5546875 C-11.73261719 15.65039062 -11.64882813 16.74609375 -11.5625 17.875 C-11.48128906 18.96554687 -11.40007812 20.05609375 -11.31640625 21.1796875 C-11.16998297 23.94728971 -11.16998297 23.94728971 -10 26 C-7.36 26 -4.72 26 -2 26 C-2.01047363 25.31897217 -2.02094727 24.63794434 -2.03173828 23.9362793 C-2.07328878 20.85339034 -2.09932311 17.77056029 -2.125 14.6875 C-2.14175781 13.61564453 -2.15851563 12.54378906 -2.17578125 11.43945312 C-2.18222656 10.41142578 -2.18867188 9.38339844 -2.1953125 8.32421875 C-2.20578613 7.37635498 -2.21625977 6.42849121 -2.22705078 5.4519043 C-2 3 -2 3 0 0 Z " fill="#A15252" transform="translate(389,250)"/>
<path d="M0 0 C2.32805923 1.15006126 3.55567 2.40126836 5.203125 4.40234375 C5.72390625 5.01980469 6.2446875 5.63726562 6.78125 6.2734375 C7.953125 7.96484375 7.953125 7.96484375 7.953125 9.96484375 C8.613125 9.96484375 9.273125 9.96484375 9.953125 9.96484375 C10.283125 11.28484375 10.613125 12.60484375 10.953125 13.96484375 C10.293125 13.96484375 9.633125 13.96484375 8.953125 13.96484375 C8.953125 13.30484375 8.953125 12.64484375 8.953125 11.96484375 C7.303125 11.30484375 5.653125 10.64484375 3.953125 9.96484375 C3.953125 8.97484375 3.953125 7.98484375 3.953125 6.96484375 C2.963125 6.96484375 1.973125 6.96484375 0.953125 6.96484375 C0.953125 5.97484375 0.953125 4.98484375 0.953125 3.96484375 C-0.036875 3.63484375 -1.026875 3.30484375 -2.046875 2.96484375 C-2.376875 4.28484375 -2.706875 5.60484375 -3.046875 6.96484375 C-4.036875 6.96484375 -5.026875 6.96484375 -6.046875 6.96484375 C-5.716875 7.95484375 -5.386875 8.94484375 -5.046875 9.96484375 C-6.036875 10.29484375 -7.026875 10.62484375 -8.046875 10.96484375 C-9.44399774 12.92081559 -10.78467407 14.91920776 -12.046875 16.96484375 C-13.036875 16.63484375 -14.026875 16.30484375 -15.046875 15.96484375 C-13.63423145 14.04509739 -12.21696429 12.12907069 -10.796875 10.21484375 C-10.40113281 9.67601562 -10.00539063 9.1371875 -9.59765625 8.58203125 C-3.172922 -0.05449675 -3.172922 -0.05449675 0 0 Z " fill="#C14D4D" transform="translate(110.046875,158.03515625)"/>
<path d="M0 0 C0.66 0.33 1.32 0.66 2 1 C1.67 3.64 1.34 6.28 1 9 C2.32 9 3.64 9 5 9 C4.67 10.65 4.34 12.3 4 14 C6.97 14.495 6.97 14.495 10 15 C10 15.66 10 16.32 10 17 C11.65 17 13.3 17 15 17 C14.67 18.32 14.34 19.64 14 21 C14.99 21.66 15.98 22.32 17 23 C15.1875 23.625 15.1875 23.625 13 24 C12.01 23.34 11.02 22.68 10 22 C10 21.34 10 20.68 10 20 C9.34 20 8.68 20 8 20 C8 19.34 8 18.68 8 18 C7.40316406 17.74863281 6.80632812 17.49726563 6.19140625 17.23828125 C1.16940545 14.40053748 -2.3540888 7.99783227 -5 3 C-5 2.34 -5 1.68 -5 1 C-2.525 1.495 -2.525 1.495 0 2 C0 1.34 0 0.68 0 0 Z " fill="#C24241" transform="translate(61,281)"/>
<path d="M0 0 C3.96 0 7.92 0 12 0 C12 0.66 12 1.32 12 2 C8.7 2 5.4 2 2 2 C2 15.2 2 28.4 2 42 C1.67 42 1.34 42 1 42 C-0.3115545 28.01789216 -0.09169791 14.02978029 0 0 Z " fill="#6F2F2F" transform="translate(376,235)"/>
<path d="M0 0 C1.00289063 0.10183594 2.00578125 0.20367187 3.0390625 0.30859375 C3.80992187 0.39238281 4.58078125 0.47617187 5.375 0.5625 C4.72320749 4.37833379 3.90601025 6.59131405 1.375 9.5625 C-1.595 9.0675 -1.595 9.0675 -4.625 8.5625 C-4.625 7.2425 -4.625 5.9225 -4.625 4.5625 C-5.285 4.5625 -5.945 4.5625 -6.625 4.5625 C-7.615 4.5625 -8.605 4.5625 -9.625 4.5625 C-9.625 3.9025 -9.625 3.2425 -9.625 2.5625 C-8.965 2.5625 -8.305 2.5625 -7.625 2.5625 C-7.625 1.9025 -7.625 1.2425 -7.625 0.5625 C-4.89657939 -0.80171031 -3.01546682 -0.31557211 0 0 Z " fill="#7C1917" transform="translate(322.625,265.4375)"/>
<path d="M0 0 C0 0.66 0 1.32 0 2 C-1.3921875 2.37125 -1.3921875 2.37125 -2.8125 2.75 C-6.34657028 4.13590992 -7.35713207 4.62779742 -9 8 C-9.52703112 10.99167666 -9.81221096 13.96947342 -10 17 C-12.64 17 -15.28 17 -18 17 C-18 19.97 -18 22.94 -18 26 C-16.02 26 -14.04 26 -12 26 C-12 26.33 -12 26.66 -12 27 C-14.31 27 -16.62 27 -19 27 C-19 23.37 -19 19.74 -19 16 C-16.69 16 -14.38 16 -12 16 C-12.04640625 15.33613281 -12.0928125 14.67226562 -12.140625 13.98828125 C-12.43656207 6.74839213 -12.43656207 6.74839213 -10.25 3 C-6.6938062 -0.16106116 -4.67631523 -1.67011258 0 0 Z " fill="#8C504E" transform="translate(276,219)"/>
<path d="M0 0 C2.875 1.625 2.875 1.625 5 4 C5.58763244 8.1134271 5.33043558 9.50434664 3 13 C1.68 12.67 0.36 12.34 -1 12 C-0.34 11.67 0.32 11.34 1 11 C1.65772428 7.97065509 1.65772428 7.97065509 2 5 C0.576875 5.2784375 0.576875 5.2784375 -0.875 5.5625 C-4 6 -4 6 -6 5 C-6.33 4.67 -6.66 4.34 -7 4 C-7.33 4.99 -7.66 5.98 -8 7 C-8.33 5.35 -8.66 3.7 -9 2 C-5.48746854 -0.34168764 -4.13530644 -0.49623677 0 0 Z " fill="#7A1919" transform="translate(249,217)"/>
<path d="M0 0 C9.57 0 19.14 0 29 0 C28.67 0.66 28.34 1.32 28 2 C19.75 2 11.5 2 3 2 C2.58655088 6.61239145 2.58655088 6.61239145 4 8.75 C7.16615889 10.72884931 10.30293552 10.69696193 14 11 C14 11.33 14 11.66 14 12 C12.20866022 12.05391993 10.41686101 12.09275571 8.625 12.125 C7.62726563 12.14820313 6.62953125 12.17140625 5.6015625 12.1953125 C3 12 3 12 1 10 C0.67 6.7 0.34 3.4 0 0 Z " fill="#8B5F60" transform="translate(299,259)"/>
<path d="M0 0 C2.21736634 1.10868317 4.03617993 2.49440461 6 4 C6 3.34 6 2.68 6 2 C7.65 2 9.3 2 11 2 C10.67 2.66 10.34 3.32 10 4 C9.34 4 8.68 4 8 4 C7.896875 4.53625 7.79375 5.0725 7.6875 5.625 C6.81907303 8.62502044 5.44379704 11.2379535 4 14 C2 13 2 13 0.875 10.375 C-0.05654649 6.78189212 -0.14783375 3.69584376 0 0 Z " fill="#C33837" transform="translate(123,250)"/>
<path d="M0 0 C3.375 0.3125 3.375 0.3125 7 1 C9.49732489 4.74598733 9.62175294 6.57001031 9 11 C6 13.4375 6 13.4375 3 15 C1.68 14.34 0.36 13.68 -1 13 C0.98 12.67 2.96 12.34 5 12 C5 11.01 5 10.02 5 9 C5.66 9 6.32 9 7 9 C4.16569547 5.7457985 2.31392226 4.4793247 -2 4 C-1.34 2.68 -0.68 1.36 0 0 Z " fill="#7C3235" transform="translate(360,217)"/>
<path d="M0 0 C0.33 0.99 0.66 1.98 1 3 C6.18128466 5.76177815 12.06334232 6.40422282 17.8359375 6.7890625 C20 7 20 7 23 8 C20.39154077 10.60845923 19.1378953 10.35780384 15.5 10.4375 C9.00923164 10.36694817 4.4520951 8.37740404 -1 5 C-0.67 3.35 -0.34 1.7 0 0 Z " fill="#7C2D2E" transform="translate(294,270)"/>
<path d="M0 0 C3 1 3 1 6 3 C5.01 3 4.02 3 3 3 C2.34 5.31 1.68 7.62 1 10 C-4.75 11 -4.75 11 -7 11 C-7.33 10.01 -7.66 9.02 -8 8 C-7.13375 7.690625 -7.13375 7.690625 -6.25 7.375 C-3.18589456 5.50249112 -1.84460032 3.03041481 0 0 Z " fill="#7F1310" transform="translate(451,266)"/>
<path d="M0 0 C2.3125 0.1875 2.3125 0.1875 4 1 C3.01 2.485 3.01 2.485 2 4 C3.65 4.33 5.3 4.66 7 5 C7 5.66 7 6.32 7 7 C7.66 7 8.32 7 9 7 C8.67 7.66 8.34 8.32 8 9 C4.7 9 1.4 9 -2 9 C-2.33 8.01 -2.66 7.02 -3 6 C-3.66 5.67 -4.32 5.34 -5 5 C-2.75 2.4375 -2.75 2.4375 0 0 Z " fill="#741918" transform="translate(394,236)"/>
<path d="M0 0 C0.33 0 0.66 0 1 0 C1.13466603 4.98905575 0.70301802 9.49009795 -0.3125 14.375 C-0.55613281 15.59960938 -0.79976563 16.82421875 -1.05078125 18.0859375 C-1.36402344 19.04757813 -1.67726563 20.00921875 -2 21 C-2.99 21.33 -3.98 21.66 -5 22 C-5.33 19.69 -5.66 17.38 -6 15 C-5.34 14.67 -4.68 14.34 -4 14 C-3.59270772 11.67843403 -3.25561323 9.3431213 -3 7 C-2.34 7 -1.68 7 -1 7 C-1.020625 6.030625 -1.04125 5.06125 -1.0625 4.0625 C-1 1 -1 1 0 0 Z " fill="#BA4142" transform="translate(98,236)"/>
<path d="M0 0 C0.66 0 1.32 0 2 0 C2.53532823 1.55759343 3.05265378 3.12138045 3.5625 4.6875 C3.85253906 5.55761719 4.14257812 6.42773438 4.44140625 7.32421875 C5.05141961 10.24631074 4.77703633 12.14400553 4 15 C3.67 14.01 3.34 13.02 3 12 C1.35 12 -0.3 12 -2 12 C-1 3.42857143 -1 3.42857143 0 0 Z " fill="#C04140" transform="translate(108,227)"/>
<path d="M0 0 C0.08121924 1.60332791 0.13929134 3.20784026 0.1875 4.8125 C0.22230469 5.70582031 0.25710938 6.59914062 0.29296875 7.51953125 C0 10 0 10 -1.38671875 11.82421875 C-3 13 -3 13 -5 13 C-5.33 11.02 -5.66 9.04 -6 7 C-5.34 7 -4.68 7 -4 7 C-4.7763932 3.9254644 -4.7763932 3.9254644 -7 2 C-4 0 -4 0 0 0 Z " fill="#821311" transform="translate(322,241)"/>
<path d="M0 0 C0.33 0.66 0.66 1.32 1 2 C0.236875 1.896875 -0.52625 1.79375 -1.3125 1.6875 C-2.199375 1.790625 -3.08625 1.89375 -4 2 C-5.97127988 4.28504837 -5.97127988 4.28504837 -7 7 C-6.04134491 9.33075929 -6.04134491 9.33075929 -3 11 C-5.475 12.485 -5.475 12.485 -8 14 C-10.2477975 11.94766315 -11.0022242 10.99332739 -12 8 C-11.40206327 5.64811553 -10.74118205 3.31074405 -10 1 C-9.67 1.66 -9.34 2.32 -9 3 C-8.443125 2.505 -7.88625 2.01 -7.3125 1.5 C-4.61837017 -0.24754367 -3.14624993 -0.26218749 0 0 Z " fill="#963838" transform="translate(398,235)"/>
<path d="M0 0 C3.63 0 7.26 0 11 0 C11 0.66 11 1.32 11 2 C6.545 2.495 6.545 2.495 2 3 C1.67 13.23 1.34 23.46 1 34 C0.67 34 0.34 34 0 34 C0 22.78 0 11.56 0 0 Z " fill="#721A1A" transform="translate(197,220)"/>
<path d="M0 0 C0 0.66 0 1.32 0 2 C0.66 2.33 1.32 2.66 2 3 C2 3.66 2 4.32 2 5 C3.65 5 5.3 5 7 5 C7.33 5.99 7.66 6.98 8 8 C7.01 8 6.02 8 5 8 C4.34 9.32 3.68 10.64 3 12 C0.57910566 9.09492679 -1.31573522 6.36852957 -3 3 C-3.66 2.67 -4.32 2.34 -5 2 C-2 0 -2 0 0 0 Z " fill="#862B28" transform="translate(299,237)"/>
<path d="M0 0 C0.33 0.66 0.66 1.32 1 2 C3.64 2 6.28 2 9 2 C8.0409375 2.1546875 8.0409375 2.1546875 7.0625 2.3125 C6.381875 2.539375 5.70125 2.76625 5 3 C4.67 3.99 4.34 4.98 4 6 C2.5625 7.6875 2.5625 7.6875 1 9 C0.34 9 -0.32 9 -1 9 C-1.33 9.99 -1.66 10.98 -2 12 C-2.99 12 -3.98 12 -5 12 C-3.68938409 7.76570244 -2.05643741 3.92592596 0 0 Z " fill="#CE4A4A" transform="translate(135,259)"/>
<path d="M0 0 C1 3 1 3 -0.25 6 C-1.71851703 8.51745776 -2.89285356 10.07608369 -5 12 C-5.99 13.485 -5.99 13.485 -7 15 C-7.66 15 -8.32 15 -9 15 C-9.33 15.99 -9.66 16.98 -10 18 C-12.0625 19.1875 -12.0625 19.1875 -14 20 C-12.5 17 -12.5 17 -11 14 C-10.34 14 -9.68 14 -9 14 C-8.74476562 13.27425781 -8.48953125 12.54851562 -8.2265625 11.80078125 C-6.93198926 8.8447016 -5.39544896 6.69435334 -3.375 4.1875 C-2.74335937 3.39730469 -2.11171875 2.60710937 -1.4609375 1.79296875 C-0.97882813 1.20128906 -0.49671875 0.60960937 0 0 Z " fill="#C1605C" transform="translate(79,195)"/>
<path d="M0 0 C2.42581871 2.42581871 2.96355664 4.07433869 3.09765625 7.48046875 C3.08605469 8.37378906 3.07445312 9.26710937 3.0625 10.1875 C3.05347656 11.08855469 3.04445313 11.98960937 3.03515625 12.91796875 C3.02355469 13.60503906 3.01195312 14.29210937 3 15 C2.67 15 2.34 15 2 15 C1.93941406 14.37351562 1.87882812 13.74703125 1.81640625 13.1015625 C1.69072266 11.87566406 1.69072266 11.87566406 1.5625 10.625 C1.48128906 9.81289062 1.40007812 9.00078125 1.31640625 8.1640625 C1.10909886 5.95727195 1.10909886 5.95727195 0 4 C0.33 6.64 0.66 9.28 1 12 C-2.21451269 13.60725635 -5.43612536 13.05748185 -9 13 C-5.25 11 -5.25 11 -3 11 C-2.814375 9.1128125 -2.814375 9.1128125 -2.625 7.1875 C-2.30131941 3.89674737 -1.93395001 2.90092502 0 0 Z " fill="#914441" transform="translate(327,245)"/>
<path d="M0 0 C1.33998047 0.06960937 1.33998047 0.06960937 2.70703125 0.140625 C3.60808594 0.17671875 4.50914062 0.2128125 5.4375 0.25 C6.46810547 0.31960937 6.46810547 0.31960937 7.51953125 0.390625 C7.51953125 0.720625 7.51953125 1.050625 7.51953125 1.390625 C5.20953125 1.720625 2.89953125 2.050625 0.51953125 2.390625 C-0.14046875 4.370625 -0.80046875 6.350625 -1.48046875 8.390625 C1.48953125 8.390625 4.45953125 8.390625 7.51953125 8.390625 C7.51953125 10.700625 7.51953125 13.010625 7.51953125 15.390625 C7.18953125 15.390625 6.85953125 15.390625 6.51953125 15.390625 C6.51953125 13.410625 6.51953125 11.430625 6.51953125 9.390625 C5.06129913 9.3636207 3.6029245 9.34422713 2.14453125 9.328125 C0.92636719 9.31072266 0.92636719 9.31072266 -0.31640625 9.29296875 C-2.52984017 9.24596166 -2.52984017 9.24596166 -4.48046875 10.390625 C-5.81991829 5.03282683 -5.81991829 5.03282683 -4.32421875 2.203125 C-2.48046875 0.390625 -2.48046875 0.390625 0 0 Z " fill="#9E5F5C" transform="translate(278.48046875,226.609375)"/>
<path d="M0 0 C0.33 0.66 0.66 1.32 1 2 C5.95 2 10.9 2 16 2 C16.33 1.34 16.66 0.68 17 0 C17 1.65 17 3.3 17 5 C11.06 5 5.12 5 -1 5 C-0.67 3.35 -0.34 1.7 0 0 Z " fill="#995754" transform="translate(300,250)"/>
<path d="M0 0 C3.01693943 2.85674795 5.40554531 5.82348931 7.75 9.25 C8.67039063 10.58804688 8.67039063 10.58804688 9.609375 11.953125 C10.06828125 12.62859375 10.5271875 13.3040625 11 14 C10.67 14.66 10.34 15.32 10 16 C5.27745665 14.50867052 5.27745665 14.50867052 3.875 11.9375 C3.58625 11.298125 3.2975 10.65875 3 10 C2.01 9.67 1.02 9.34 0 9 C0 8.34 0 7.68 0 7 C0.66 7 1.32 7 2 7 C2.33 6.34 2.66 5.68 3 5 C2.01 4.67 1.02 4.34 0 4 C0 2.68 0 1.36 0 0 Z " fill="#C34645" transform="translate(147,206)"/>
<path d="M0 0 C-0.54087318 3.78611227 -2.11722332 5.55400767 -5 8 C-5.66 8 -6.32 8 -7 8 C-7 8.66 -7 9.32 -7 10 C-8.65 10.66 -10.3 11.32 -12 12 C-10.40261891 6.9174238 -5.94094179 0 0 0 Z " fill="#8C5150" transform="translate(435,236)"/>
<path d="M0 0 C0 0.99 0 1.98 0 3 C-1.66666667 4.66666667 -3.33333333 6.33333333 -5 8 C-5.86119134 10.17346568 -5.86119134 10.17346568 -6 12 C-8.96175123 11.38722388 -10.38058783 10.74627478 -13 9 C-12.01 8.67 -11.02 8.34 -10 8 C-9.67 7.34 -9.34 6.68 -9 6 C-8.01 6 -7.02 6 -6 6 C-7.32 5.34 -8.64 4.68 -10 4 C-8.906875 3.896875 -7.81375 3.79375 -6.6875 3.6875 C-3.14440371 3.02692273 -2.06756277 2.7972908 0 0 Z " fill="#801511" transform="translate(450,266)"/>
<path d="M0 0 C0.99 0 1.98 0 3 0 C5.42857143 6.28571429 5.42857143 6.28571429 4 10 C3.34 9.67 2.68 9.34 2 9 C2 8.34 2 7.68 2 7 C0.02 7.33 -1.96 7.66 -4 8 C-2.68 5.36 -1.36 2.72 0 0 Z " fill="#C55B5A" transform="translate(83,251)"/>
<path d="M0 0 C0.33 0.66 0.66 1.32 1 2 C0.2754531 3.7125654 -0.45458944 5.42335234 -1.23046875 7.11328125 C-2.27998746 9.68646671 -2.66496043 12.2526755 -3 15 C-3.33 15 -3.66 15 -4 15 C-4.33 17.97 -4.66 20.94 -5 24 C-5.33 24 -5.66 24 -6 24 C-6.45436331 15.83408156 -6.44274838 9.08569723 -2 2 C-1.34 1.34 -0.68 0.68 0 0 Z " fill="#A57572" transform="translate(293,240)"/>
<path d="M0 0 C2.1875 -0.375 2.1875 -0.375 5 0 C7.08832653 1.82869674 8.38336791 3.69052559 10 6 C10 6.66 10 7.32 10 8 C10.66 8 11.32 8 12 8 C12.33 9.32 12.66 10.64 13 12 C12.34 12 11.68 12 11 12 C11 11.34 11 10.68 11 10 C8.525 9.01 8.525 9.01 6 8 C6 7.01 6 6.02 6 5 C5.01 5 4.02 5 3 5 C3 4.01 3 3.02 3 2 C2.01 1.34 1.02 0.68 0 0 Z " fill="#C14E4D" transform="translate(108,160)"/>
<path d="M0 0 C0.33 0 0.66 0 1 0 C1.33 4.95 1.66 9.9 2 15 C4.165625 14.938125 4.165625 14.938125 6.375 14.875 C8.8359375 14.8046875 8.8359375 14.8046875 11 15 C11.66 15.66 12.32 16.32 13 17 C8.71 17 4.42 17 0 17 C0 11.39 0 5.78 0 0 Z " fill="#7D3F40" transform="translate(404,262)"/>
<path d="M0 0 C1.32 0.99 2.64 1.98 4 3 C3.67 5.31 3.34 7.62 3 10 C-2.61 9.67 -8.22 9.34 -14 9 C-14 8.67 -14 8.34 -14 8 C-8.72 8 -3.44 8 2 8 C0.02 4.535 0.02 4.535 -2 1 C-1.34 0.67 -0.68 0.34 0 0 Z " fill="#A56967" transform="translate(449,244)"/>
<path d="M0 0 C0.99 0.33 1.98 0.66 3 1 C1.68 1.33 0.36 1.66 -1 2 C-0.67 2.99 -0.34 3.98 0 5 C0.99 5.33 1.98 5.66 3 6 C2.67 6.99 2.34 7.98 2 9 C-2.75 10.125 -2.75 10.125 -5 9 C-5 7 -5 7 -3 5 C-2.835 4.319375 -2.67 3.63875 -2.5 2.9375 C-2.335 2.298125 -2.17 1.65875 -2 1 C-1.34 0.67 -0.68 0.34 0 0 Z " fill="#7C1E1E" transform="translate(319,268)"/>
<path d="M0 0 C0.625 1.875 0.625 1.875 1 4 C0.34 4.66 -0.32 5.32 -1 6 C-1.12375 6.94875 -1.2475 7.8975 -1.375 8.875 C-2.10281545 12.51407724 -3.12263293 13.73298352 -6 16 C-6.66 16 -7.32 16 -8 16 C-6.42986223 10.03347646 -3.24970218 5.17090975 0 0 Z " fill="#C45E5D" transform="translate(64,215)"/>
<path d="M0 0 C0.33 0 0.66 0 1 0 C1.02698189 1.62490954 1.04638757 3.24994633 1.0625 4.875 C1.07410156 5.77992188 1.08570313 6.68484375 1.09765625 7.6171875 C1 10 1 10 0 12 C-3.96 12 -7.92 12 -12 12 C-11.67 11.34 -11.34 10.68 -11 10 C-8.6739143 9.61936779 -6.33944736 9.28730055 -4 9 C-3.34 8.67 -2.68 8.34 -2 8 C-1.34 8.33 -0.68 8.66 0 9 C0 6.03 0 3.06 0 0 Z " fill="#9E6361" transform="translate(253,267)"/>
<path d="M0 0 C1.08667969 0.02707031 2.17335938 0.05414063 3.29296875 0.08203125 C4.54013672 0.13423828 4.54013672 0.13423828 5.8125 0.1875 C5.8125 0.5175 5.8125 0.8475 5.8125 1.1875 C4.678125 1.31125 3.54375 1.435 2.375 1.5625 C0.6115625 1.871875 0.6115625 1.871875 -1.1875 2.1875 C-1.5175 2.8475 -1.8475 3.5075 -2.1875 4.1875 C-1.5275 4.8475 -0.8675 5.5075 -0.1875 6.1875 C-2.1675 6.1875 -4.1475 6.1875 -6.1875 6.1875 C-6.1875 5.5275 -6.1875 4.8675 -6.1875 4.1875 C-7.1775 3.8575 -8.1675 3.5275 -9.1875 3.1875 C-6.54246503 -0.34849411 -4.24021315 -0.13678107 0 0 Z " fill="#771613" transform="translate(307.1875,235.8125)"/>
<path d="M0 0 C-5.77494653 3.95996334 -12.19289373 3.69979597 -19 3 C-19.99 2.34 -20.98 1.68 -22 1 C-18.04 1 -14.08 1 -10 1 C-9.67 0.34 -9.34 -0.32 -9 -1 C-5.26793158 -2.21040057 -3.31957615 -2.0901035 0 0 Z " fill="#8D5453" transform="translate(456,277)"/>
<path d="M0 0 C2.1926135 4.2186994 4.36894477 8.60185899 3.625 13.4375 C3.41875 13.953125 3.2125 14.46875 3 15 C3 14.34 3 13.68 3 13 C2.34 13 1.68 13 1 13 C-0.75 11.5625 -0.75 11.5625 -2 9 C-1.65366978 5.90434065 -0.88565086 2.98190362 0 0 Z " fill="#C5524A" transform="translate(114,245)"/>
<path d="M0 0 C5.57142857 5.14285714 5.57142857 5.14285714 6 9 C6.66 9 7.32 9 8 9 C8.33 9.99 8.66 10.98 9 12 C6.03 11.505 6.03 11.505 3 11 C2.49632243 9.54293274 1.99717444 8.08429904 1.5 6.625 C1.2215625 5.81289062 0.943125 5.00078125 0.65625 4.1640625 C0 2 0 2 0 0 Z " fill="#C1585A" transform="translate(138,194)"/>
<path d="M0 0 C3.04470873 1.52235436 4.20270948 4.18424486 6 7 C4.68 7.33 3.36 7.66 2 8 C1.62875 7.38125 1.2575 6.7625 0.875 6.125 C-1.48622906 3.4489404 -3.60131652 2.9063156 -7 2 C-6.401875 1.855625 -5.80375 1.71125 -5.1875 1.5625 C-3.43849596 1.1127561 -1.71322977 0.57107659 0 0 Z " fill="#8E413E" transform="translate(314,242)"/>
<path d="M0 0 C0.33 0 0.66 0 1 0 C2.51708428 10.55808656 2.51708428 10.55808656 0 15 C-0.66 15 -1.32 15 -2 15 C-1.85879286 13.06215735 -1.71187127 11.12473045 -1.5625 9.1875 C-1.48128906 8.10855469 -1.40007813 7.02960938 -1.31640625 5.91796875 C-1 3 -1 3 0 0 Z " fill="#C25551" transform="translate(53,237)"/>
<path d="M0 0 C1.3703055 1.97485205 2.70672372 3.97386717 4 6 C2.55903414 5.57405412 1.12231288 5.13373367 -0.3125 4.6875 C-1.11300781 4.44386719 -1.91351563 4.20023437 -2.73828125 3.94921875 C-5.09964573 2.95817977 -6.33879993 1.91925057 -8 0 C-2.25 -1.125 -2.25 -1.125 0 0 Z " fill="#C35454" transform="translate(87,307)"/>
<path d="M0 0 C1.65 0 3.3 0 5 0 C4.46930939 3.82097239 3.50298434 6.06171403 1 9 C0.01 8.67 -0.98 8.34 -2 8 C-2 7.01 -2 6.02 -2 5 C-1.01 5 -0.02 5 1 5 C0.67 3.35 0.34 1.7 0 0 Z " fill="#8B514D" transform="translate(323,266)"/>
<path d="M0 0 C1.65 0 3.3 0 5 0 C4.67 0.66 4.34 1.32 4 2 C3.34 2 2.68 2 2 2 C1.896875 2.53625 1.79375 3.0725 1.6875 3.625 C0.81907303 6.62502044 -0.55620296 9.2379535 -2 12 C-2.66 11.67 -3.32 11.34 -4 11 C-4 10.01 -4 9.02 -4 8 C-3.01 8 -2.02 8 -1 8 C-0.67 5.36 -0.34 2.72 0 0 Z " fill="#C26060" transform="translate(129,252)"/>
<path d="M0 0 C1.5 1.375 1.5 1.375 3 3 C3 3.66 3 4.32 3 5 C2.34 5 1.68 5 1 5 C1 5.66 1 6.32 1 7 C-0.65 6.67 -2.3 6.34 -4 6 C-4 5.01 -4 4.02 -4 3 C-2 1.3125 -2 1.3125 0 0 Z " fill="#7D1510" transform="translate(364,221)"/>
<path d="M0 0 C1.875 1.5 1.875 1.5 3 3 C2.01 3.495 2.01 3.495 1 4 C1 3.34 1 2.68 1 2 C-0.98 2 -2.96 2 -5 2 C-5 2.66 -5 3.32 -5 4 C-5.66 4 -6.32 4 -7 4 C-7.33 4.99 -7.66 5.98 -8 7 C-8.33 5.35 -8.66 3.7 -9 2 C-5.53076119 -0.31282587 -4.07794425 -0.42478586 0 0 Z " fill="#8B5351" transform="translate(249,217)"/>
<path d="M0 0 C0.268125 0.5775 0.53625 1.155 0.8125 1.75 C1.94184834 4.05396098 1.94184834 4.05396098 3.625 6.0625 C5 8 5 8 5 11 C4.34 11 3.68 11 3 11 C3 10.01 3 9.02 3 8 C2.01 7.67 1.02 7.34 0 7 C-1.6875 4.9375 -1.6875 4.9375 -3 3 C-2.01 2.01 -1.02 1.02 0 0 Z " fill="#701A16" transform="translate(296,239)"/>
<path d="M0 0 C0.556875 0.226875 1.11375 0.45375 1.6875 0.6875 C1.6875 1.3475 1.6875 2.0075 1.6875 2.6875 C-1.9425 4.0075 -5.5725 5.3275 -9.3125 6.6875 C-7.20878268 2.48006537 -5.11564163 -0.69130292 0 0 Z " fill="#8A4644" transform="translate(274.3125,218.3125)"/>
<path d="M0 0 C-2 2 -2 2 -4.8203125 2.1953125 C-5.91085937 2.17210937 -7.00140625 2.14890625 -8.125 2.125 C-9.22070312 2.10695313 -10.31640625 2.08890625 -11.4453125 2.0703125 C-12.28835938 2.04710937 -13.13140625 2.02390625 -14 2 C-14 1.34 -14 0.68 -14 0 C-12.2300132 -0.19532961 -10.45895721 -0.38098882 -8.6875 -0.5625 C-7.70136719 -0.66691406 -6.71523438 -0.77132813 -5.69921875 -0.87890625 C-3 -1 -3 -1 0 0 Z " fill="#7E4241" transform="translate(317,278)"/>
<path d="M0 0 C1.134375 0.020625 2.26875 0.04125 3.4375 0.0625 C2.839375 0.26875 2.24125 0.475 1.625 0.6875 C-1.37268767 2.57176082 -2.17611776 4.87382084 -3.5625 8.0625 C-4.2225 8.0625 -4.8825 8.0625 -5.5625 8.0625 C-4.54651535 0.07976343 -4.54651535 0.07976343 0 0 Z " fill="#C8585A" transform="translate(84.5625,235.9375)"/>
<path d="M0 0 C0.66 0 1.32 0 2 0 C2 0.66 2 1.32 2 2 C4.97 2 7.94 2 11 2 C11.33 2.66 11.66 3.32 12 4 C8.04 4 4.08 4 0 4 C0 2.68 0 1.36 0 0 Z " fill="#874B4C" transform="translate(335,275)"/>
<path d="M0 0 C0.99 0 1.98 0 3 0 C3.5345256 1.24420647 4.05208611 2.49570936 4.5625 3.75 C4.85253906 4.44609375 5.14257812 5.1421875 5.44140625 5.859375 C6.07831803 8.30012784 5.80248831 9.6403655 5 12 C4.67 11.01 4.34 10.02 4 9 C3.34 8.67 2.68 8.34 2 8 C1.60828247 6.34608154 1.27942455 4.67654729 1 3 C0.67 2.01 0.34 1.02 0 0 Z " fill="#C65E5E" transform="translate(161,232)"/>
<path d="M0 0 C2.5 2.3125 2.5 2.3125 5 5 C5 5.99 5 6.98 5 8 C6.65 8 8.3 8 10 8 C9.01 8.66 8.02 9.32 7 10 C4.0625 8.9375 4.0625 8.9375 1 7 C0.125 3.3125 0.125 3.3125 0 0 Z " fill="#8E5F5D" transform="translate(239,222)"/>
<path d="M0 0 C0.99 0.99 1.98 1.98 3 3 C1.71475739 3.86380259 0.42157581 4.71580369 -0.875 5.5625 C-1.59429687 6.03816406 -2.31359375 6.51382812 -3.0546875 7.00390625 C-3.69664062 7.33261719 -4.33859375 7.66132813 -5 8 C-5.66 7.67 -6.32 7.34 -7 7 C-6.67 6.01 -6.34 5.02 -6 4 C-4.02 3.67 -2.04 3.34 0 3 C0 2.01 0 1.02 0 0 Z " fill="#C24D4B" transform="translate(139,304)"/>
<path d="M0 0 C0.33 0.66 0.66 1.32 1 2 C0.278125 1.896875 -0.44375 1.79375 -1.1875 1.6875 C-5.11638534 2.12404282 -6.42442246 4.13824718 -9 7 C-9.33 7 -9.66 7 -10 7 C-10 5.02 -10 3.04 -10 1 C-9.67 1.66 -9.34 2.32 -9 3 C-8.443125 2.505 -7.88625 2.01 -7.3125 1.5 C-4.61837017 -0.24754367 -3.14624993 -0.26218749 0 0 Z " fill="#905B5A" transform="translate(398,235)"/>
<path d="M0 0 C2.09970981 3.9171057 2.99334562 7.68576696 4 12 C3.01 12.33 2.02 12.66 1 13 C-0.00496852 9.98509443 -0.10335303 7.95818308 -0.0625 4.8125 C-0.05347656 3.91144531 -0.04445313 3.01039063 -0.03515625 2.08203125 C-0.02355469 1.39496094 -0.01195313 0.70789063 0 0 Z " fill="#CB6466" transform="translate(119,264)"/>
<path d="M0 0 C0.66 0.33 1.32 0.66 2 1 C2 2.98 2 4.96 2 7 C1.01 7.33 0.02 7.66 -1 8 C-1.33 5.69 -1.66 3.38 -2 1 C-1.34 0.67 -0.68 0.34 0 0 Z " fill="#C0726F" transform="translate(94,250)"/>
<path d="M0 0 C2.31 0 4.62 0 7 0 C5.38405168 2.04119788 3.7143618 4.04072937 2 6 C1.34 6 0.68 6 0 6 C0 4.02 0 2.04 0 0 Z " fill="#874240" transform="translate(434,244)"/>
<path d="M0 0 C0.66 0.33 1.32 0.66 2 1 C2.25 6.625 2.25 6.625 0 10 C-1.32 9.67 -2.64 9.34 -4 9 C-3.34 8.67 -2.68 8.34 -2 8 C-1.31527335 6.11235097 -1.31527335 6.11235097 -0.875 3.9375 C-0.70742187 3.20402344 -0.53984375 2.47054687 -0.3671875 1.71484375 C-0.24601563 1.14894531 -0.12484375 0.58304688 0 0 Z " fill="#9B6B6B" transform="translate(252,220)"/>
<path d="M0 0 C3 1 3 1 6 3 C4.88625 3.433125 4.88625 3.433125 3.75 3.875 C1.43260203 4.82302644 -0.77917115 5.84845911 -3 7 C-2.38722388 4.03824877 -1.74627478 2.61941217 0 0 Z " fill="#6F1817" transform="translate(451,266)"/>
<path d="M0 0 C2.7710688 2.34591852 3.52059284 4.14776201 4.1875 7.6875 C4.34605469 8.49574219 4.50460937 9.30398437 4.66796875 10.13671875 C4.77753906 10.75160156 4.88710938 11.36648437 5 12 C4.01 11.34 3.02 10.68 2 10 C1.8125 6.875 1.8125 6.875 2 4 C1.34 4 0.68 4 0 4 C0 2.68 0 1.36 0 0 Z " fill="#8D5958" transform="translate(459,241)"/>
<path d="M0 0 C1.32 0 2.64 0 4 0 C4.33 1.65 4.66 3.3 5 5 C4.01 5.495 4.01 5.495 3 6 C2.34 5.34 1.68 4.68 1 4 C-0.31747324 3.30251417 -1.64914193 2.63040043 -3 2 C-2.01 2 -1.02 2 0 2 C0 1.34 0 0.68 0 0 Z " fill="#763435" transform="translate(282,218)"/>
<path d="M0 0 C1.28983433 2.57966865 2.08864192 5.26592575 3 8 C2.01 8.33 1.02 8.66 0 9 C-2.1875 7.5625 -2.1875 7.5625 -4 6 C-3.01 5.67 -2.02 5.34 -1 5 C-0.67 3.35 -0.34 1.7 0 0 Z " fill="#BC2927" transform="translate(66,214)"/>
<path d="M0 0 C0 3 0 3 -2.5 5.6875 C-3.325 6.450625 -4.15 7.21375 -5 8 C-5.33 7.34 -5.66 6.68 -6 6 C-8.01669827 4.86649466 -8.01669827 4.86649466 -10 4 C-8.906875 3.896875 -7.81375 3.79375 -6.6875 3.6875 C-3.14440371 3.02692273 -2.06756277 2.7972908 0 0 Z " fill="#975353" transform="translate(450,266)"/>
<path d="M0 0 C0.66 0 1.32 0 2 0 C1.88590407 1.45922693 1.75834456 2.91740598 1.625 4.375 C1.55539063 5.18710937 1.48578125 5.99921875 1.4140625 6.8359375 C1 9 1 9 -1 11 C-1.0270043 9.54176788 -1.04639787 8.08339325 -1.0625 6.625 C-1.07410156 5.81289063 -1.08570313 5.00078125 -1.09765625 4.1640625 C-1 2 -1 2 0 0 Z " fill="#C05453" transform="translate(165,268)"/>
<path d="M0 0 C3.875 0.875 3.875 0.875 5 2 C6.34747084 2.23075082 7.70377565 2.41153063 9.0625 2.5625 C10.361875 2.706875 11.66125 2.85125 13 3 C13 3.33 13 3.66 13 4 C9.37 4 5.74 4 2 4 C1.34 2.68 0.68 1.36 0 0 Z " fill="#894643" transform="translate(300,267)"/>
<path d="M0 0 C0 0.66 0 1.32 0 2 C-8.57142857 3.42857143 -8.57142857 3.42857143 -12 1 C-7.93631321 0.22596442 -4.13574827 -0.0984702 0 0 Z " fill="#854848" transform="translate(447,234)"/>
<path d="M0 0 C0.93423645 3.01031744 1.04449911 3.86650268 0 7 C-1.65 7.33 -3.3 7.66 -5 8 C-1.125 1.125 -1.125 1.125 0 0 Z " fill="#CB5C5C" transform="translate(94,175)"/>
<path d="M0 0 C0 0.66 0 1.32 0 2 C-1.98 2.33 -3.96 2.66 -6 3 C-6 3.66 -6 4.32 -6 5 C-6.99 5 -7.98 5 -9 5 C-9 4.34 -9 3.68 -9 3 C-8.34 3 -7.68 3 -7 3 C-7 2.34 -7 1.68 -7 1 C-4.53721199 -0.231394 -2.7204945 -0.07159196 0 0 Z " fill="#986565" transform="translate(322,265)"/>
<path d="M0 0 C0.99 0 1.98 0 3 0 C3.33 0.99 3.66 1.98 4 3 C3.01 3 2.02 3 1 3 C0.34 4.32 -0.32 5.64 -1 7 C-1.66 6.01 -2.32 5.02 -3 4 C-2.34 4 -1.68 4 -1 4 C-0.67 2.68 -0.34 1.36 0 0 Z " fill="#92514D" transform="translate(303,242)"/>
<path d="M0 0 C2.3125 0.1875 2.3125 0.1875 4 1 C4 1.33 4 1.66 4 2 C2.35 2 0.7 2 -1 2 C-1 3.65 -1 5.3 -1 7 C-2.32 6.34 -3.64 5.68 -5 5 C-2.75 2.4375 -2.75 2.4375 0 0 Z " fill="#CC7878" transform="translate(108,158)"/>
<path d="M0 0 C2.3125 -0.3125 2.3125 -0.3125 5 0 C6.8125 2.5 6.8125 2.5 8 5 C7.01 5.495 7.01 5.495 6 6 C5.01 5.67 4.02 5.34 3 5 C3 4.01 3 3.02 3 2 C2.01 1.34 1.02 0.68 0 0 Z " fill="#BE3F3F" transform="translate(108,160)"/>
<path d="M0 0 C1.98 0 3.96 0 6 0 C5.67 1.98 5.34 3.96 5 6 C3.31237149 4.3545622 1.6459651 2.68711423 0 1 C0 0.67 0 0.34 0 0 Z " fill="#C7534A" transform="translate(60,290)"/>
<path d="M0 0 C0.99 0.33 1.98 0.66 3 1 C2.67 2.98 2.34 4.96 2 7 C1.01 6.34 0.02 5.68 -1 5 C-0.67 3.35 -0.34 1.7 0 0 Z " fill="#641514" transform="translate(461,252)"/>
<path d="M0 0 C0.33 0 0.66 0 1 0 C1.02712066 1.43739513 1.04645067 2.87493863 1.0625 4.3125 C1.07410156 5.11300781 1.08570312 5.91351563 1.09765625 6.73828125 C1 9 1 9 0 12 C-0.66 12 -1.32 12 -2 12 C-1.44687265 7.97007218 -0.8441938 3.97977076 0 0 Z " fill="#CB6869" transform="translate(104,242)"/>
<path d="M0 0 C0.928125 0.2784375 0.928125 0.2784375 1.875 0.5625 C4.04160178 1.23686176 4.04160178 1.23686176 6 0 C5.75 1.875 5.75 1.875 5 4 C2.9375 5.25 2.9375 5.25 1 6 C0.67 4.02 0.34 2.04 0 0 Z " fill="#6F1610" transform="translate(316,248)"/>
<path d="M0 0 C1.32 0 2.64 0 4 0 C4.33 1.32 4.66 2.64 5 4 C3.68 3.67 2.36 3.34 1 3 C1 3.66 1 4.32 1 5 C0.34 5 -0.32 5 -1 5 C-0.67 3.35 -0.34 1.7 0 0 Z " fill="#771716" transform="translate(410,241)"/>
<path d="M0 0 C1.65 1.65 3.3 3.3 5 5 C4.67 5.66 4.34 6.32 4 7 C1.525 6.01 1.525 6.01 -1 5 C-0.67 3.35 -0.34 1.7 0 0 Z " fill="#CD6163" transform="translate(153,215)"/>
<path d="M0 0 C2.5 2.25 2.5 2.25 5 5 C5 6.32 5 7.64 5 9 C4.34 8.67 3.68 8.34 3 8 C3 7.34 3 6.68 3 6 C2.34 6 1.68 6 1 6 C0.67 4.02 0.34 2.04 0 0 Z " fill="#C25857" transform="translate(125,177)"/>
<path d="M0 0 C0.99 0 1.98 0 3 0 C3.33 0.66 3.66 1.32 4 2 C5.32 2 6.64 2 8 2 C8 2.66 8 3.32 8 4 C5.03 3.67 2.06 3.34 -1 3 C-0.67 2.01 -0.34 1.02 0 0 Z " fill="#C74F50" transform="translate(89,271)"/>
<path d="M0 0 C1.65 0 3.3 0 5 0 C4.34 2.64 3.68 5.28 3 8 C2.01 7.67 1.02 7.34 0 7 C0.66 6.67 1.32 6.34 2 6 C2 4.35 2 2.7 2 1 C1.34 0.67 0.68 0.34 0 0 Z " fill="#CD6D6B" transform="translate(149,252)"/>
<path d="M0 0 C0.99 0.33 1.98 0.66 3 1 C3 1.66 3 2.32 3 3 C3.66 3 4.32 3 5 3 C4.67 3.99 4.34 4.98 4 6 C1.525 5.01 1.525 5.01 -1 4 C-0.67 2.68 -0.34 1.36 0 0 Z " fill="#C83C39" transform="translate(73,246)"/>
<path d="M0 0 C-0.33 1.32 -0.66 2.64 -1 4 C-2.32 4.33 -3.64 4.66 -5 5 C-5 4.01 -5 3.02 -5 2 C-2 0 -2 0 0 0 Z " fill="#814041" transform="translate(435,236)"/>
<path d="M0 0 C0.66 0 1.32 0 2 0 C2.33 0.99 2.66 1.98 3 3 C0.75 4.625 0.75 4.625 -2 6 C-4.3125 5.1875 -4.3125 5.1875 -6 4 C-4.02 3.67 -2.04 3.34 0 3 C0 2.01 0 1.02 0 0 Z " fill="#935F5C" transform="translate(365,226)"/>
<path d="M0 0 C0.66 0 1.32 0 2 0 C2.33 1.98 2.66 3.96 3 6 C1.68 6.33 0.36 6.66 -1 7 C-0.67 4.69 -0.34 2.38 0 0 Z " fill="#C97879" transform="translate(108,227)"/>
<path d="M0 0 C0.99 0.33 1.98 0.66 3 1 C2.25 5.75 2.25 5.75 0 8 C0 5.36 0 2.72 0 0 Z " fill="#C15553" transform="translate(161,278)"/>
<path d="M0 0 C0.33 0.99 0.66 1.98 1 3 C1.99 3.33 2.98 3.66 4 4 C4 4.99 4 5.98 4 7 C1.525 6.01 1.525 6.01 -1 5 C-0.67 3.35 -0.34 1.7 0 0 Z " fill="#8F4B49" transform="translate(294,270)"/>
<path d="M0 0 C0.268125 0.639375 0.53625 1.27875 0.8125 1.9375 C1.88667752 4.33131686 1.88667752 4.33131686 5 5 C2 6 2 6 -1 5 C-0.67 3.35 -0.34 1.7 0 0 Z " fill="#8D4B4A" transform="translate(435,264)"/>
<path d="M0 0 C1.65 0.99 3.3 1.98 5 3 C4.67 3.66 4.34 4.32 4 5 C1.03 4.505 1.03 4.505 -2 4 C-1.34 2.68 -0.68 1.36 0 0 Z " fill="#874948" transform="translate(320,237)"/>
<path d="M0 0 C0.99 0.99 1.98 1.98 3 3 C2.34 4.98 1.68 6.96 1 9 C-1 6 -1 6 -0.625 2.8125 C-0.41875 1.884375 -0.2125 0.95625 0 0 Z " fill="#CC4F50" transform="translate(89,234)"/>
<path d="M0 0 C2 2 2 2 2 5 C0.02 5 -1.96 5 -4 5 C-4 4.34 -4 3.68 -4 3 C-3.01 2.67 -2.02 2.34 -1 2 C-0.67 1.34 -0.34 0.68 0 0 Z " fill="#671F1D" transform="translate(284,222)"/>
<path d="M0 0 C0.99 0 1.98 0 3 0 C3 2.31 3 4.62 3 7 C2.34 7 1.68 7 1 7 C0.34 5.02 -0.32 3.04 -1 1 C-0.67 0.67 -0.34 0.34 0 0 Z " fill="#7E3D3D" transform="translate(366,221)"/>
<path d="M0 0 C0.33 0.66 0.66 1.32 1 2 C1.66 2 2.32 2 3 2 C3.33 2.99 3.66 3.98 4 5 C1.03 4.505 1.03 4.505 -2 4 C-2.33 3.01 -2.66 2.02 -3 1 C-2.01 0.67 -1.02 0.34 0 0 Z " fill="#C94949" transform="translate(143,201)"/>
<path d="M0 0 C1.231394 2.46278801 1.07159196 4.2795055 1 7 C-0.65 6.67 -2.3 6.34 -4 6 C-2.68 4.02 -1.36 2.04 0 0 Z " fill="#CC5B57" transform="translate(86,186)"/>
<path d="M0 0 C0.99 0.33 1.98 0.66 3 1 C3 1.99 3 2.98 3 4 C1.02 4.66 -0.96 5.32 -3 6 C-2 4 -1 2 0 0 Z " fill="#C5615E" transform="translate(102,164)"/>
</svg>
